<svg enable-background="new 0 0 60.003 59.991" height="512" viewBox="0 0 60.003 59.991" width="512" xmlns="http://www.w3.org/2000/svg"><path d="m12.688 29.679-7.88 7.878c-5.078 5.077-5.078 13.309 0 18.386l.24.24c5.077 5.076 13.306 5.076 18.383 0l7.883-7.882z" fill="#cc6a00"/><path d="m47.315 32.306 7.88-7.879c5.078-5.077 5.078-13.309 0-18.386l-.24-.24c-5.076-5.076-13.306-5.076-18.383 0l-7.883 7.882z" fill="#cc6a00"/><path d="m54.954 56.184.24-.24c5.078-5.077 5.078-13.309 0-18.386l-31.762-31.757c-5.077-5.076-13.307-5.076-18.383 0l-.24.24c-5.078 5.077-5.078 13.309 0 18.386l31.762 31.757c5.076 5.076 13.306 5.076 18.383 0z" fill="#f7b563"/><path d="m37.14 43.911 5.781-5.78c1.173-1.173 1.173-3.076 0-4.249l-15.81-15.808c-1.173-1.173-3.075-1.173-4.248 0l-5.781 5.78c-1.173 1.173-1.173 3.076 0 4.249l15.811 15.808c1.172 1.173 3.074 1.173 4.247 0z" fill="#f2ecbf"/><g fill="#4d007e"><path d="m45.762 59.984c-3.585 0-7.17-1.364-9.899-4.093l-31.762-31.757c-2.644-2.645-4.101-6.16-4.101-9.9s1.457-7.256 4.101-9.9l.241-.241c5.458-5.457 14.339-5.457 19.797 0l31.762 31.757c2.645 2.645 4.101 6.16 4.101 9.9s-1.457 7.256-4.101 9.9l-.24.24c-2.729 2.73-6.314 4.094-9.899 4.094zm-31.522-57.985c-3.073 0-6.145 1.169-8.485 3.508l-.24.241c-2.266 2.266-3.515 5.28-3.515 8.486s1.249 6.219 3.515 8.486l31.762 31.757c4.678 4.678 12.291 4.678 16.969 0l.24-.24c2.267-2.266 3.515-5.28 3.515-8.485s-1.249-6.22-3.515-8.486l-31.761-31.759c-2.339-2.338-5.412-3.508-8.485-3.508z"/><path d="m35.016 44.788c-1.025 0-2.051-.39-2.831-1.171l-15.81-15.808c-1.562-1.562-1.562-4.102 0-5.663l5.781-5.78c1.561-1.561 4.101-1.561 5.662 0l15.811 15.808c1.562 1.562 1.562 4.102 0 5.663l-5.781 5.78c-.781.781-1.806 1.171-2.832 1.171zm-10.029-27.593c-.513 0-1.027.195-1.417.586l-5.781 5.78c-.781.782-.781 2.053 0 2.835l15.811 15.808c.781.781 2.052.781 2.834 0l5.781-5.78c.781-.782.781-2.053 0-2.835l-15.811-15.808c-.391-.391-.904-.586-1.417-.586z"/><path d="m11.375 22.396c-.256 0-.512-.098-.707-.293-.39-.391-.39-1.024 0-1.414l10.03-10.028c.391-.391 1.024-.391 1.414 0s.39 1.024 0 1.414l-10.03 10.028c-.196.196-.451.293-.707.293z"/><path d="m11.375 16.666c-.256 0-.512-.098-.707-.293-.39-.391-.39-1.024 0-1.414l4.298-4.297c.391-.391 1.024-.391 1.414 0s.39 1.024 0 1.414l-4.298 4.297c-.196.195-.451.293-.707.293z"/><path d="m38.598 49.615c-.256 0-.512-.098-.707-.293-.39-.391-.39-1.024 0-1.414l10.03-10.028c.391-.391 1.024-.391 1.414 0s.39 1.024 0 1.414l-10.03 10.028c-.195.195-.451.293-.707.293z"/><path d="m44.33 49.615c-.256 0-.512-.098-.707-.293-.39-.391-.39-1.024 0-1.414l4.298-4.297c.391-.391 1.024-.39 1.414 0 .39.391.39 1.024 0 1.414l-4.298 4.297c-.196.195-.452.293-.707.293z"/><path d="m26.419 23.113c-.256 0-.512-.098-.707-.293l-1.433-1.433c-.391-.39-.391-1.023 0-1.414s1.024-.391 1.414 0l1.433 1.433c.391.39.391 1.023 0 1.414-.195.195-.451.293-.707.293z"/><path d="m22.121 27.411c-.256 0-.512-.098-.707-.293l-1.433-1.433c-.391-.39-.391-1.023 0-1.414s1.024-.391 1.414 0l1.433 1.433c.391.39.391 1.023 0 1.414-.195.195-.451.293-.707.293z"/><path d="m30.718 27.411c-.256 0-.512-.098-.707-.293l-1.433-1.433c-.391-.39-.391-1.023 0-1.414s1.024-.391 1.414 0l1.433 1.433c.391.39.391 1.023 0 1.414-.195.195-.451.293-.707.293z"/><path d="m26.419 31.708c-.256 0-.512-.098-.707-.293l-1.433-1.433c-.391-.39-.391-1.023 0-1.414s1.024-.391 1.414 0l1.433 1.433c.391.39.391 1.023 0 1.414-.195.196-.451.293-.707.293z"/><path d="m35.016 31.708c-.256 0-.512-.098-.707-.293l-1.433-1.433c-.391-.391-.391-1.023 0-1.414.39-.391 1.024-.391 1.414 0l1.433 1.433c.391.391.391 1.023 0 1.414-.195.196-.451.293-.707.293z"/><path d="m30.718 36.006c-.256 0-.512-.098-.707-.293l-1.433-1.433c-.391-.39-.391-1.023 0-1.414s1.024-.391 1.414 0l1.433 1.433c.391.39.391 1.023 0 1.414-.195.195-.451.293-.707.293z"/><path d="m39.315 36.006c-.256 0-.512-.098-.707-.293l-1.433-1.433c-.391-.39-.391-1.023 0-1.414s1.024-.391 1.414 0l1.433 1.433c.391.39.391 1.023 0 1.414-.195.195-.451.293-.707.293z"/><path d="m35.016 40.304c-.256 0-.512-.098-.707-.293l-1.433-1.433c-.391-.391-.391-1.023 0-1.414.39-.391 1.024-.391 1.414 0l1.433 1.433c.391.391.391 1.023 0 1.414-.195.195-.451.293-.707.293z"/><path d="m48.628 22.396c-.256 0-.512-.098-.707-.293l-10.03-10.028c-.391-.39-.391-1.023 0-1.414s1.024-.391 1.414 0l10.03 10.028c.391.39.391 1.023 0 1.414-.195.196-.451.293-.707.293z"/><path d="m48.628 16.666c-.256 0-.512-.098-.707-.293l-4.298-4.297c-.391-.39-.391-1.023 0-1.414s1.024-.391 1.414 0l4.298 4.297c.391.39.391 1.023 0 1.414-.195.195-.451.293-.707.293z"/><path d="m21.405 49.615c-.256 0-.512-.098-.707-.293l-10.03-10.028c-.391-.39-.391-1.023 0-1.414s1.024-.391 1.414 0l10.03 10.028c.391.39.391 1.023 0 1.414-.195.195-.452.293-.707.293z"/><path d="m15.673 49.615c-.256 0-.512-.098-.707-.293l-4.298-4.297c-.391-.39-.391-1.023 0-1.414s1.024-.391 1.414 0l4.298 4.297c.391.39.391 1.023 0 1.414-.195.195-.451.293-.707.293z"/><path d="m14.24 59.984c-3.585 0-7.169-1.364-9.899-4.093l-.24-.24c-2.644-2.645-4.101-6.161-4.101-9.901s1.456-7.256 4.101-9.9l6.566-6.565c.391-.391 1.023-.391 1.414 0l18.627 18.623c.188.188.293.442.293.707s-.105.52-.293.707l-6.57 6.568c-2.728 2.729-6.313 4.094-9.898 4.094zm-2.865-28.578-5.859 5.858c-2.267 2.267-3.516 5.281-3.516 8.486s1.248 6.219 3.515 8.486l.24.24c4.679 4.679 12.291 4.678 16.969 0l5.862-5.861z"/><path d="m48.628 30.992c-.256 0-.512-.098-.707-.293l-18.627-18.623c-.188-.188-.293-.442-.293-.707s.105-.52.293-.707l6.569-6.568c5.458-5.458 14.339-5.458 19.797 0l.24.24c2.645 2.645 4.102 6.161 4.102 9.9 0 3.74-1.457 7.256-4.101 9.9l-6.566 6.565c-.195.195-.451.293-.707.293zm-17.212-19.623 17.212 17.209 5.859-5.858c2.267-2.267 3.515-5.28 3.515-8.486s-1.249-6.219-3.515-8.486l-.24-.24c-4.678-4.678-12.29-4.678-16.969 0z"/></g></svg>