<svg id="Capa_1" enable-background="new 0 0 497 497" height="512" viewBox="0 0 497 497" width="512" xmlns="http://www.w3.org/2000/svg"><g><g><path d="m29.114 169.686c-38.818-38.818-38.818-101.755 0-140.573s101.755-38.818 140.573 0l298.2 298.2c38.818 38.818 38.818 101.755 0 140.573s-101.755 38.818-140.573 0z" fill="#d77f4a"/><path d="m467.886 327.313-298.2-298.2c-22.336-22.335-52.657-31.815-81.774-28.447 21.486 2.486 42.317 11.965 58.799 28.448l298.2 298.2c38.818 38.818 38.818 101.755 0 140.573-16.482 16.482-37.313 25.962-58.799 28.447 29.117 3.368 59.438-6.111 81.774-28.447 38.818-38.819 38.818-101.755 0-140.574z" fill="#c86d36"/><g><g><path d="m160.642 132.999c-1.919 0-3.839-.732-5.303-2.196l-2.929-2.929c-2.929-2.93-2.929-7.678 0-10.607 2.929-2.928 7.678-2.928 10.606 0l2.929 2.929c2.929 2.93 2.929 7.678 0 10.607-1.464 1.464-3.384 2.196-5.303 2.196z" fill="#c86d36"/></g><g><path d="m125.499 168.142c-1.919 0-3.838-.731-5.302-2.196l-2.929-2.928c-2.93-2.928-2.93-7.677-.002-10.607 2.929-2.93 7.678-2.931 10.607-.001l2.929 2.928c2.93 2.928 2.93 7.677.002 10.606-1.465 1.465-3.386 2.198-5.305 2.198z" fill="#c86d36"/></g><g><path d="m131.356 103.713c-1.92 0-3.839-.732-5.303-2.196l-2.929-2.929c-2.929-2.93-2.929-7.678 0-10.607 2.929-2.928 7.678-2.928 10.606 0l2.929 2.929c2.929 2.93 2.929 7.678 0 10.607-1.464 1.463-3.384 2.196-5.303 2.196z" fill="#c86d36"/></g><g><path d="m96.213 138.856c-1.919 0-3.839-.732-5.303-2.196l-2.929-2.929c-2.929-2.93-2.929-7.678 0-10.607 2.929-2.928 7.678-2.928 10.606 0l2.929 2.929c2.929 2.93 2.929 7.678 0 10.607-1.464 1.464-3.384 2.196-5.303 2.196z" fill="#c86d36"/></g><g><path d="m102.07 74.427c-1.919 0-3.839-.732-5.304-2.197l-2.928-2.929c-2.929-2.929-2.928-7.678.001-10.606s7.678-2.929 10.606.001l2.928 2.929c2.929 2.929 2.928 7.678-.001 10.607-1.464 1.462-3.383 2.195-5.302 2.195z" fill="#c86d36"/></g><g><path d="m66.927 109.57c-1.92 0-3.839-.732-5.303-2.196l-2.929-2.929c-2.929-2.93-2.929-7.678 0-10.607 2.929-2.928 7.678-2.928 10.606 0l2.929 2.929c2.929 2.93 2.929 7.678 0 10.607-1.464 1.464-3.384 2.196-5.303 2.196z" fill="#c86d36"/></g></g><g><g><path d="m433.002 405.358c-1.92 0-3.839-.732-5.303-2.196l-2.929-2.929c-2.929-2.93-2.929-7.678 0-10.607 2.929-2.928 7.678-2.928 10.606 0l2.929 2.929c2.929 2.93 2.929 7.678 0 10.607-1.464 1.464-3.384 2.196-5.303 2.196z" fill="#c86d36"/></g><g><path d="m397.858 440.502c-1.919 0-3.839-.733-5.304-2.197l-2.928-2.929c-2.929-2.929-2.928-7.678.001-10.607 2.929-2.928 7.678-2.929 10.606.001l2.928 2.929c2.929 2.929 2.928 7.678-.001 10.606-1.463 1.464-3.383 2.197-5.302 2.197z" fill="#c86d36"/></g><g><path d="m403.716 376.072c-1.919 0-3.839-.732-5.303-2.196l-2.929-2.929c-2.929-2.93-2.929-7.678 0-10.607 2.929-2.928 7.678-2.928 10.606 0l2.929 2.929c2.929 2.93 2.929 7.678 0 10.607-1.464 1.464-3.384 2.196-5.303 2.196z" fill="#c86d36"/></g><g><path d="m368.573 411.216c-1.92 0-3.839-.732-5.303-2.196l-2.929-2.929c-2.929-2.93-2.929-7.678 0-10.607 2.929-2.928 7.678-2.928 10.607 0l2.929 2.929c2.929 2.93 2.929 7.678 0 10.607-1.465 1.463-3.385 2.196-5.304 2.196z" fill="#c86d36"/></g><g><path d="m374.43 346.786c-1.919 0-3.838-.731-5.302-2.196l-2.929-2.928c-2.93-2.928-2.93-7.677-.002-10.606 2.929-2.93 7.678-2.931 10.606-.001l2.929 2.928c2.93 2.928 2.93 7.677.002 10.607-1.465 1.464-3.385 2.196-5.304 2.196z" fill="#c86d36"/></g><g><path d="m339.287 381.93c-1.919 0-3.839-.732-5.303-2.196l-2.929-2.929c-2.929-2.93-2.929-7.678 0-10.607 2.929-2.928 7.678-2.928 10.606 0l2.929 2.929c2.929 2.93 2.929 7.678 0 10.607-1.465 1.463-3.384 2.196-5.303 2.196z" fill="#c86d36"/></g></g></g><g><path d="m327.314 29.114c38.818-38.818 101.755-38.818 140.573 0s38.818 101.755 0 140.573l-298.2 298.2c-38.818 38.818-101.755 38.818-140.573 0s-38.818-101.755 0-140.573z" fill="#fddeb0"/><g><g><path d="m122.57 346.786c-1.92 0-3.84-.732-5.304-2.197-2.928-2.93-2.928-7.679.002-10.607l2.929-2.928c2.93-2.929 7.679-2.928 10.606.001 2.928 2.93 2.928 7.679-.002 10.606l-2.929 2.928c-1.464 1.465-3.383 2.197-5.302 2.197z" fill="#fccd7f"/></g><g><path d="m157.713 381.93c-1.919 0-3.839-.732-5.303-2.196-2.929-2.93-2.929-7.678 0-10.607l2.929-2.929c2.929-2.928 7.678-2.928 10.606 0 2.929 2.93 2.929 7.678 0 10.607l-2.929 2.929c-1.464 1.463-3.383 2.196-5.303 2.196z" fill="#fccd7f"/></g><g><path d="m93.284 376.072c-1.92 0-3.839-.732-5.303-2.196-2.929-2.93-2.929-7.678 0-10.607l2.929-2.929c2.929-2.928 7.678-2.928 10.606 0 2.929 2.93 2.929 7.678 0 10.607l-2.929 2.929c-1.464 1.464-3.383 2.196-5.303 2.196z" fill="#fccd7f"/></g><g><path d="m128.427 411.216c-1.919 0-3.839-.732-5.303-2.196-2.929-2.93-2.929-7.678 0-10.607l2.929-2.929c2.929-2.928 7.678-2.928 10.606 0 2.929 2.93 2.929 7.678 0 10.607l-2.929 2.929c-1.464 1.463-3.383 2.196-5.303 2.196z" fill="#fccd7f"/></g><g><path d="m63.998 405.358c-1.919 0-3.839-.732-5.303-2.196-2.929-2.93-2.929-7.678 0-10.607l2.929-2.929c2.929-2.928 7.678-2.928 10.607 0 2.929 2.93 2.929 7.678 0 10.607l-2.929 2.929c-1.465 1.464-3.385 2.196-5.304 2.196z" fill="#fccd7f"/></g><g><path d="m99.142 440.502c-1.919 0-3.838-.732-5.303-2.196-2.929-2.929-2.93-7.678-.001-10.606l2.928-2.929c2.929-2.93 7.678-2.931 10.607-.001 2.929 2.929 2.93 7.678.001 10.607l-2.928 2.929c-1.465 1.463-3.385 2.196-5.304 2.196z" fill="#fccd7f"/></g></g><g><g><path d="m394.93 74.427c-1.919 0-3.838-.731-5.303-2.196-2.929-2.929-2.93-7.678-.001-10.607l2.928-2.929c2.929-2.93 7.678-2.931 10.606-.001 2.929 2.929 2.93 7.678.001 10.606l-2.928 2.929c-1.464 1.465-3.383 2.198-5.303 2.198z" fill="#fccd7f"/></g><g><path d="m430.073 109.57c-1.919 0-3.839-.732-5.303-2.196-2.929-2.93-2.929-7.678 0-10.607l2.929-2.929c2.929-2.928 7.678-2.928 10.607 0 2.929 2.93 2.929 7.678 0 10.607l-2.929 2.929c-1.465 1.464-3.384 2.196-5.304 2.196z" fill="#fccd7f"/></g><g><path d="m365.644 103.713c-1.919 0-3.839-.732-5.303-2.196-2.929-2.93-2.929-7.678 0-10.607l2.929-2.929c2.929-2.928 7.678-2.928 10.607 0 2.929 2.93 2.929 7.678 0 10.607l-2.929 2.929c-1.465 1.463-3.385 2.196-5.304 2.196z" fill="#fccd7f"/></g><g><path d="m400.787 138.856c-1.919 0-3.839-.732-5.303-2.196-2.929-2.93-2.929-7.678 0-10.607l2.929-2.929c2.929-2.928 7.678-2.928 10.606 0 2.929 2.93 2.929 7.678 0 10.607l-2.929 2.929c-1.464 1.464-3.384 2.196-5.303 2.196z" fill="#fccd7f"/></g><g><path d="m336.358 132.999c-1.919 0-3.839-.732-5.303-2.196-2.929-2.93-2.929-7.678 0-10.607l2.929-2.929c2.929-2.928 7.678-2.928 10.606 0 2.929 2.93 2.929 7.678 0 10.607l-2.929 2.929c-1.464 1.464-3.384 2.196-5.303 2.196z" fill="#fccd7f"/></g><g><path d="m371.501 168.142c-1.92 0-3.84-.732-5.304-2.197-2.928-2.93-2.928-7.679.002-10.606l2.929-2.928c2.93-2.928 7.679-2.929 10.607.001s2.928 7.679-.002 10.607l-2.929 2.928c-1.465 1.462-3.384 2.195-5.303 2.195z" fill="#fccd7f"/></g></g><path d="m354.33 236.385-117.945 117.945c-6.248 6.248-16.379 6.248-22.627 0l-71.088-71.088c-6.248-6.248-6.248-16.379 0-22.627l117.945-117.945c6.248-6.248 16.379-6.248 22.627 0l71.088 71.088c6.249 6.248 6.249 16.378 0 22.627z" fill="#f9f6f6"/><path d="m467.886 29.113c-22.339-22.339-52.665-31.818-81.786-28.446 21.482 2.488 42.307 11.967 58.786 28.446 38.818 38.818 38.818 101.755 0 140.573l-298.2 298.2c-16.479 16.479-37.305 25.958-58.786 28.446 29.121 3.372 59.447-6.107 81.786-28.446l298.2-298.2c38.818-38.818 38.818-101.754 0-140.573z" fill="#fccd7f"/><path d="m354.33 213.758-71.088-71.088c-6.248-6.248-16.379-6.248-22.627 0l-.182.182 70.906 70.905c6.248 6.248 6.248 16.379 0 22.627l-117.764 117.764.182.182c6.248 6.248 16.379 6.248 22.627 0l117.946-117.945c6.249-6.249 6.249-16.379 0-22.627z" fill="#dddaec"/></g></g></svg>