<?xml version="1.0" encoding="utf-8"?>
<!-- Generator: Adobe Illustrator 16.0.0, SVG Export Plug-In . SVG Version: 6.00 Build 0)  -->
<!DOCTYPE svg PUBLIC "-//W3C//DTD SVG 1.1//EN" "http://www.w3.org/Graphics/SVG/1.1/DTD/svg11.dtd">
<svg version="1.1" id="Layer_1" xmlns="http://www.w3.org/2000/svg" xmlns:xlink="http://www.w3.org/1999/xlink" x="0px" y="0px"
	 width="1400px" height="980px" viewBox="0 0 1400 980" enable-background="new 0 0 1400 980" xml:space="preserve">
<rect fill-rule="evenodd" clip-rule="evenodd" fill="#ddcebd" width="1408.967" height="986.4"/>
<g>
	<path fill-rule="evenodd" clip-rule="evenodd" fill="#82D1DD" d="M1251.361,337.018h-349.64c-12.01,0-21.747,9.736-21.747,21.747v0
		c0,12.011,9.737,21.748,21.747,21.748h66.272c-7.839,1.541-13.753,8.443-13.753,16.732c0,9.421,7.638,17.059,17.059,17.059h69.144
		c8.043,0,14.563,6.52,14.563,14.564v2c0,7.517-5.694,13.699-13.003,14.479h7.294c-0.508,0-1.008,0.032-1.502,0.086h-44.979
		c-8.044,0-14.564,6.521-14.564,14.564v2.001c0,8.044,6.521,14.564,14.564,14.564h45.068c0.465,0.048,0.937,0.072,1.413,0.072
		h74.888c7.612,0,13.84-6.228,13.84-13.84v-3.608c0-6.908-5.135-12.659-11.772-13.666l62.007-0.088
		c8.044,0,14.564-6.521,14.564-14.564v-2c0-8.045-6.521-14.564-14.564-14.564h-30.539c-9.421,0-17.059-7.638-17.059-17.059
		c0-8.29,5.915-15.192,13.753-16.732h96.946c12.011,0,21.747-9.737,21.747-21.748v0
		C1273.108,346.754,1263.372,337.018,1251.361,337.018z"/>
	<path fill-rule="evenodd" clip-rule="evenodd" fill="#82D1DD" d="M529.446,185.615h-212.1c-11.973,0-21.679-9.706-21.679-21.678
		c0-11.973,9.706-21.678,21.679-21.678h212.1c11.973,0,21.678,9.706,21.678,21.678C551.124,175.909,541.419,185.615,529.446,185.615
		z"/>
	<path fill-rule="evenodd" clip-rule="evenodd" fill="#82D1DD" d="M882.614,220.15h-33.445c-11.972,0-21.678-9.706-21.678-21.678
		c0-11.973,9.706-21.678,21.678-21.678h33.445c11.972,0,21.677,9.706,21.677,21.678C904.291,210.444,894.586,220.15,882.614,220.15z
		"/>
	<path fill-rule="evenodd" clip-rule="evenodd" fill="#FFFFFF" d="M424.427,387.658h27.013c7.173,0,13.042,5.87,13.042,13.043
		c0,7.172-5.869,13.042-13.042,13.042h-27.013c-7.173,0-13.043-5.869-13.043-13.042
		C411.384,393.526,417.254,387.658,424.427,387.658z"/>
	<path fill-rule="evenodd" clip-rule="evenodd" fill="#FFFFFF" d="M128.962,200.693h144.92c7.174,0,13.043,5.869,13.043,13.043
		c0,7.174-5.869,13.042-13.043,13.042h-144.92c-7.174,0-13.043-5.868-13.043-13.042
		C115.919,206.562,121.788,200.693,128.962,200.693z"/>
	<path fill-rule="evenodd" clip-rule="evenodd" fill="#FFFFFF" d="M325.127,200.693h27.013c7.173,0,13.041,5.87,13.041,13.043
		s-5.868,13.042-13.041,13.042h-27.013c-7.173,0-13.043-5.868-13.043-13.042C312.084,206.562,317.954,200.693,325.127,200.693z"/>
	<path fill-rule="evenodd" clip-rule="evenodd" fill="#FFFFFF" d="M987.707,292.419h144.92c7.174,0,13.042,5.869,13.042,13.043
		c0,7.174-5.868,13.042-13.042,13.042h-144.92c-7.174,0-13.043-5.869-13.043-13.042
		C974.664,298.288,980.533,292.419,987.707,292.419z"/>
	<path fill-rule="evenodd" clip-rule="evenodd" fill="#FFFFFF" d="M1183.872,292.419h27.013c7.173,0,13.042,5.87,13.042,13.043
		s-5.869,13.042-13.042,13.042h-27.013c-7.173,0-13.043-5.869-13.043-13.042C1170.829,298.288,1176.699,292.419,1183.872,292.419z"
		/>
	<path fill-rule="evenodd" clip-rule="evenodd" fill="#FFFFFF" d="M947.441,131.749h27.013c7.173,0,13.042,5.87,13.042,13.042
		s-5.869,13.043-13.042,13.043h-27.013c-7.173,0-13.042-5.869-13.042-13.043C934.399,137.617,940.269,131.749,947.441,131.749z"/>
	<path fill-rule="evenodd" clip-rule="evenodd" fill="#FFFFFF" d="M860.724,81.643h144.919c7.175,0,13.043,5.869,13.043,13.043
		c0,7.174-5.868,13.042-13.043,13.042H860.724c-7.174,0-13.043-5.868-13.043-13.042C847.681,87.512,853.55,81.643,860.724,81.643z"
		/>
</g>
<path fill-rule="evenodd" clip-rule="evenodd" fill="#5F94AE" d="M673.489,201.25L673.489,201.25
	c-275.913,0-499.585,223.672-499.585,499.584v42.674h999.171v-42.674C1173.075,424.922,949.403,201.25,673.489,201.25z"/>
<g>
	<g>
		<rect x="460.612" y="300.068" fill-rule="evenodd" clip-rule="evenodd" fill="#5D7C98" width="178.868" height="441.627"/>
		<rect x="703.737" y="300.068" fill-rule="evenodd" clip-rule="evenodd" fill="#5D7C98" width="178.868" height="441.627"/>
	</g>
</g>
<g>
	<path fill-rule="evenodd" clip-rule="evenodd" fill="#0D5172" d="M663.012,719.468c0,9.979-8.093,18.073-18.077,18.073h-179.31
		c-9.982,0-18.075-8.094-18.075-18.073V452.471c0-9.983,8.093-18.074,18.075-18.074h179.31c9.984,0,18.077,8.091,18.077,18.074
		V719.468z"/>
	<g>
		<path fill-rule="evenodd" clip-rule="evenodd" fill="#DC2A51" d="M663.012,713.47c0,9.983-8.093,18.076-18.077,18.076h-179.31
			c-9.982,0-18.075-8.093-18.075-18.076V446.475c0-9.982,8.093-18.076,18.075-18.076h179.31c9.984,0,18.077,8.094,18.077,18.076
			V713.47z"/>
		<rect x="465.221" y="433.612" fill-rule="evenodd" clip-rule="evenodd" fill="#EAEAEA" width="180.122" height="279.692"/>
		<rect x="477.149" y="485.316" fill-rule="evenodd" clip-rule="evenodd" fill="#89C5D3" width="42.528" height="38.349"/>
		<g>
			<g>
				<rect x="525.425" y="499.895" fill-rule="evenodd" clip-rule="evenodd" fill="#79ADB8" width="107.275" height="3.295"/>
			</g>
			<g>
				<rect x="525.425" y="510.393" fill-rule="evenodd" clip-rule="evenodd" fill="#79ADB8" width="107.275" height="3.296"/>
			</g>
			<g>
				<rect x="525.425" y="520.891" fill-rule="evenodd" clip-rule="evenodd" fill="#79ADB8" width="107.275" height="3.293"/>
			</g>
			<g>
				<rect x="477.149" y="531.386" fill-rule="evenodd" clip-rule="evenodd" fill="#79ADB8" width="155.551" height="3.297"/>
			</g>
			<g>
				<rect x="477.149" y="541.883" fill-rule="evenodd" clip-rule="evenodd" fill="#79ADB8" width="155.551" height="3.297"/>
			</g>
			<g>
				<rect x="477.149" y="552.38" fill-rule="evenodd" clip-rule="evenodd" fill="#79ADB8" width="155.551" height="3.296"/>
			</g>
			<g>
				<rect x="477.149" y="562.878" fill-rule="evenodd" clip-rule="evenodd" fill="#79ADB8" width="155.551" height="3.298"/>
			</g>
			<g>
				<rect x="477.149" y="573.375" fill-rule="evenodd" clip-rule="evenodd" fill="#79ADB8" width="155.551" height="3.297"/>
			</g>
			<g>
				<rect x="477.149" y="583.873" fill-rule="evenodd" clip-rule="evenodd" fill="#79ADB8" width="155.551" height="3.297"/>
			</g>
			<g>
				<rect x="477.149" y="594.372" fill-rule="evenodd" clip-rule="evenodd" fill="#79ADB8" width="155.551" height="3.296"/>
			</g>
			<g>
				<rect x="477.149" y="604.868" fill-rule="evenodd" clip-rule="evenodd" fill="#79ADB8" width="155.551" height="3.298"/>
			</g>
			<g>
				<rect x="477.149" y="615.365" fill-rule="evenodd" clip-rule="evenodd" fill="#79ADB8" width="155.551" height="3.297"/>
			</g>
			<g>
				<rect x="477.149" y="625.861" fill-rule="evenodd" clip-rule="evenodd" fill="#79ADB8" width="155.551" height="3.296"/>
			</g>
			<g>
				<rect x="477.149" y="636.359" fill-rule="evenodd" clip-rule="evenodd" fill="#79ADB8" width="155.551" height="3.297"/>
			</g>
			<g>
				<rect x="477.149" y="646.855" fill-rule="evenodd" clip-rule="evenodd" fill="#79ADB8" width="155.551" height="3.299"/>
			</g>
			<g>
				<rect x="477.149" y="657.355" fill-rule="evenodd" clip-rule="evenodd" fill="#79ADB8" width="155.551" height="3.295"/>
			</g>
			<g>
				<rect x="477.149" y="667.854" fill-rule="evenodd" clip-rule="evenodd" fill="#79ADB8" width="155.551" height="3.295"/>
			</g>
			<g>
				<rect x="477.149" y="678.349" fill-rule="evenodd" clip-rule="evenodd" fill="#79ADB8" width="155.551" height="3.298"/>
			</g>
			<g>
				<rect x="477.149" y="688.848" fill-rule="evenodd" clip-rule="evenodd" fill="#79ADB8" width="155.551" height="3.295"/>
			</g>
		</g>
		<path fill-rule="evenodd" clip-rule="evenodd" fill="#F78D26" d="M555.28,385.709c-10.875,0-19.688,8.815-19.688,19.688
			c0,10.875,8.813,19.69,19.688,19.69c10.872,0,19.689-8.814,19.689-19.69C574.97,394.524,566.152,385.709,555.28,385.709
			L555.28,385.709z M555.28,416.898L555.28,416.898c-6.352,0-11.501-5.147-11.501-11.5c0-6.351,5.149-11.5,11.501-11.5
			s11.501,5.149,11.501,11.5C566.781,411.751,561.632,416.898,555.28,416.898z"/>
		<path fill-rule="evenodd" clip-rule="evenodd" fill="#79ADB8" d="M507.002,497.914c0-4.743-3.846-8.589-8.588-8.589
			c-4.743,0-8.589,3.846-8.589,8.589c0,2.755,1.302,5.2,3.319,6.772c-5.28,3.603-9.387,11.972-10.868,18.979h32.274
			c-1.481-7.007-5.587-15.376-10.868-18.979C505.7,503.114,507.002,500.669,507.002,497.914z"/>
		<path fill-rule="evenodd" clip-rule="evenodd" fill="#F78D26" d="M613.58,422.979H496.982c-9.75,0-17.653,7.905-17.653,17.653
			h151.902C631.231,430.884,623.327,422.979,613.58,422.979z"/>
	</g>
	<g>
		<path fill-rule="evenodd" clip-rule="evenodd" fill="#EF4367" d="M632.7,474.471c0,9.045-7.332,16.376-16.376,16.376
			c-9.047,0-16.382-7.331-16.382-16.376c0-9.047,7.335-16.379,16.382-16.379C625.368,458.092,632.7,465.424,632.7,474.471z"/>
	</g>
	<g>
		<polygon fill-rule="evenodd" clip-rule="evenodd" fill="#FFFFFF" points="627.166,471.367 620.167,471.367 620.167,464.365 
			612.475,464.365 612.475,471.367 605.475,471.367 605.475,479.057 612.475,479.057 612.475,486.059 620.167,486.059 
			620.167,479.057 627.166,479.057 		"/>
	</g>
	<rect x="479.329" y="440.632" fill-rule="evenodd" clip-rule="evenodd" fill="#EA7624" width="151.902" height="9.231"/>
</g>
<g>
	<path fill-rule="evenodd" clip-rule="evenodd" fill="#EDEDEE" d="M257.236,697.506v7.016c0,18.031,14.734,32.779,32.8,32.779
		h98.557v-39.795H257.236z"/>
	<path fill-rule="evenodd" clip-rule="evenodd" fill="#FFFFFF" d="M388.593,737.301h98.594c18.032,0,32.767-14.747,32.767-32.779
		v-7.016h-131.36V737.301z"/>
	<path fill-rule="evenodd" clip-rule="evenodd" fill="#EDEDEE" d="M388.593,552.914h-43.887v-0.074h-17.58v0.074h-37.09
		c-18.064,0-32.8,12.478-32.8,30.51v11.631h131.356V552.914z"/>
	<path fill-rule="evenodd" clip-rule="evenodd" fill="#FFFFFF" d="M487.187,552.914H450.08h-17.567h-43.92v42.141h131.36v-11.631
		C519.953,565.391,505.219,552.915,487.187,552.914z"/>
	<polygon fill-rule="evenodd" clip-rule="evenodd" fill="#DC2A51" points="388.593,679.399 378.046,679.399 378.046,658.293 
		356.947,658.293 356.947,631.923 378.046,631.923 378.046,610.832 388.593,610.832 388.593,595.055 257.236,595.055 
		257.236,697.506 388.593,697.506 	"/>
	<polygon fill-rule="evenodd" clip-rule="evenodd" fill="#EF4367" points="388.593,610.832 399.145,610.832 399.145,631.923 
		420.243,631.923 420.243,658.293 399.136,658.293 399.136,679.399 388.593,679.399 388.593,697.506 519.953,697.506 
		519.953,595.055 388.593,595.055 	"/>
	<polygon fill-rule="evenodd" clip-rule="evenodd" fill="#EDEDEE" points="378.046,631.923 356.947,631.923 356.947,658.293 
		378.046,658.293 378.046,679.399 388.593,679.399 388.593,610.832 378.046,610.832 	"/>
	<polygon fill-rule="evenodd" clip-rule="evenodd" fill="#FFFFFF" points="399.136,679.399 399.136,658.293 420.243,658.293 
		420.243,631.923 399.145,631.923 399.145,610.832 388.593,610.832 388.593,679.399 	"/>
	<path fill-rule="evenodd" clip-rule="evenodd" fill="#EDEDEE" d="M354.87,549.176c0,2.185-1.77,3.953-3.949,3.953h-15.493
		c-2.176,0-3.953-1.768-3.953-3.952c0-2.177,1.776-3.944,3.953-3.944h15.493C353.101,545.232,354.869,547,354.87,549.176z"/>
	<path fill-rule="evenodd" clip-rule="evenodd" fill="#EDEDEE" d="M445.483,549.176c0,2.185-1.772,3.953-3.944,3.953h-15.497
		c-2.185,0-3.949-1.768-3.949-3.952c0.001-2.177,1.765-3.944,3.949-3.944h15.498C443.712,545.232,445.483,547,445.483,549.176z"/>
	<rect x="339.133" y="530.127" fill-rule="evenodd" clip-rule="evenodd" fill="#EDEDEE" width="8.083" height="17.652"/>
	<rect x="429.747" y="530.127" fill-rule="evenodd" clip-rule="evenodd" fill="#EDEDEE" width="8.078" height="17.652"/>
	<path fill-rule="evenodd" clip-rule="evenodd" fill="#2F3E56" d="M336.38,531.801c0,0,4.875-25.729,52.785-25.729
		c47.898-0.001,53.738,25.729,53.738,25.729h-17.06c0,0-2.395-15.406-36.2-15.406c-33.81,0-36.205,15.406-36.205,15.406H336.38z"/>
	<polygon fill-rule="evenodd" clip-rule="evenodd" points="566.281,689.192 569.224,688.789 566.276,689.192 	"/>
</g>
<path fill-rule="evenodd" clip-rule="evenodd" fill="#2F3E56" d="M964.7,886.938h-271.35c-11.973,0-21.68-9.706-21.68-21.678
	c0-11.973,9.707-21.679,21.68-21.679H964.7c11.973,0,21.678,9.706,21.678,21.679C986.378,877.232,976.673,886.938,964.7,886.938z"/>
<g>
	<g>
		<g>
			<g>
				<path fill-rule="evenodd" clip-rule="evenodd" fill="#5A5D81" d="M987.198,799.387v-4.337c22.972,0,41.597-7.617,55.357-22.639
					c33.445-36.512,27.824-105.321,27.765-106.012l4.319-0.38c0.063,0.724,1.531,17.982-1.232,40.16
					c-2.564,20.574-9.442,49.271-27.644,69.15C1031.146,791.292,1011.442,799.387,987.198,799.387z"/>
			</g>
			<g>
				<path fill-rule="evenodd" clip-rule="evenodd" fill="#5A5D81" d="M967.452,799.387v-4.337c22.977,0,41.605-7.621,55.366-22.649
					c33.456-36.54,27.812-105.311,27.751-106l4.319-0.381c0.063,0.724,1.532,17.982-1.231,40.16
					c-2.563,20.574-9.44,49.271-27.643,69.15C1011.398,791.292,991.696,799.387,967.452,799.387z"/>
			</g>
			<path fill-rule="evenodd" clip-rule="evenodd" fill="#5A5D81" d="M999.866,735.277c0.332,2.361-1.344,4.294-3.729,4.294h-88.86
				c-2.387,0-4.608-1.933-4.941-4.294L881.32,586.223c-0.333-2.361,0.438-5.943,1.714-7.959l1.664-2.631
				c1.276-2.016,2.715-3.924,3.199-4.238c0.484-0.318,2.83-0.576,5.217-0.576h79.176c2.386,0,4.609,1.932,4.945,4.293
				L999.866,735.277z"/>
			<path fill-rule="evenodd" clip-rule="evenodd" fill="#FFFFFF" d="M991.316,735.277c0.336,2.361-1.344,4.294-3.729,4.294h-88.86
				c-2.386,0-4.609-1.933-4.944-4.294l-22.631-160.166c-0.336-2.361,1.347-4.293,3.729-4.293h88.861
				c2.386,0,4.609,1.932,4.944,4.293L991.316,735.277z"/>
			<linearGradient id="SVGID_1_" gradientUnits="userSpaceOnUse" x1="935.042" y1="657.7578" x2="935.042" y2="705.9799">
				<stop  offset="0" style="stop-color:#333C3E"/>
				<stop  offset="0.18" style="stop-color:#80898E"/>
				<stop  offset="0.61" style="stop-color:#C5CED2"/>
				<stop  offset="1" style="stop-color:#C5CED2"/>
			</linearGradient>
			<polygon opacity="0.3" fill-rule="evenodd" clip-rule="evenodd" fill="url(#SVGID_1_)" points="985.718,695.648 887.646,691.848 
				884.366,668.09 981.901,668.09 			"/>
			<g>
				<rect x="824.346" y="722.26" fill-rule="evenodd" clip-rule="evenodd" fill="#5A5D81" width="201.084" height="17.312"/>
			</g>
			<rect x="803.6" y="722.26" fill-rule="evenodd" clip-rule="evenodd" fill="#FFFFFF" width="161.534" height="17.312"/>
			<rect x="803.6" y="722.26" fill-rule="evenodd" clip-rule="evenodd" fill="#5A5D81" width="161.534" height="3.174"/>
		</g>
		<g>
			<path fill-rule="evenodd" clip-rule="evenodd" fill="#5A5D81" d="M731.588,658.33c-0.17,3.641,14.805,9.76,24.568,9.76
				s353.958,0,353.958,0c5.966,0,11.07-4.874,11.346-10.83l15.771-260.18c0.187-3.963-1.813-7.443-4.924-9.331
				c-1.565-0.951-12.483-9.181-14.48-9.181l-348.655,7.684c-5.969,0-11.068,4.871-11.344,10.829L731.588,658.33z"/>
			<path fill-rule="evenodd" clip-rule="evenodd" fill="#5A5D81" d="M756.156,668.09c9.764,0,353.958,0,353.958,0
				c4.09,0,7.766-2.289,9.77-5.643v-0.002l-13.583-5.645l-374.226-3.335l-0.487,4.864
				C731.418,661.971,746.393,668.09,756.156,668.09z"/>
			<path fill-rule="evenodd" clip-rule="evenodd" fill="#B3C4C7" d="M840.448,633.498c-1.326,0-2.544-0.513-3.427-1.438
				c-0.893-0.928-1.349-2.17-1.285-3.498l17.663-241.083c0.14-3.071,2.744-5.563,5.695-5.563h250.451
				c2.572,0,5.877,1.349,7.524,3.071c0.487,0.512,0.771,1.006,0.756,1.322l-15.59,241.668c-0.138,3.025-2.746,5.521-5.697,5.521
				H840.448z"/>
			<path fill-rule="evenodd" clip-rule="evenodd" fill="#6D6C8C" d="M1106.069,393.204l-14.771,229.003H847.521l16.776-229.003
				H1106.069L1106.069,393.204z M1109.546,381.915L1109.546,381.915H859.095c-2.951,0-5.556,2.492-5.695,5.563l-17.663,241.083
				c-0.063,1.328,0.393,2.57,1.285,3.498c0.883,0.926,2.101,1.438,3.427,1.438h256.091c2.951,0,5.56-2.496,5.697-5.521
				l15.59-241.668c0.015-0.316-0.269-0.81-0.756-1.322C1115.423,383.264,1112.118,381.915,1109.546,381.915z"/>
			<polygon fill-rule="evenodd" clip-rule="evenodd" fill="#FFFFFF" points="735.102,637.853 752.402,382.219 853.399,382.219 
				834.894,637.853 			"/>
			<path fill-rule="evenodd" clip-rule="evenodd" fill="#FFFFFF" d="M1109.546,387.559c0.703,0,1.731,0.332,2.51,0.716
				c0,0-14.364,239.223-14.322,239.233L740.95,627.6l16.451-239.746l-0.013-0.032l0.007-0.119c0.021-0.044,0.086-0.111,0.14-0.144
				H1109.546L1109.546,387.559z M1109.546,376.271L1109.546,376.271H757.463c-5.959,0-11.056,4.872-11.328,10.831l-17.672,264.512
				c-0.269,5.957,4.387,10.832,10.353,10.832h357.724c5.966,0,11.06-4.875,11.331-10.832l15.598-265.049
				C1123.736,380.609,1115.508,376.271,1109.546,376.271z"/>
			<path fill-rule="evenodd" clip-rule="evenodd" fill="#949FA4" d="M897.955,542.816c-0.09,0-0.181-0.004-0.271-0.008
				c-2.106-0.137-3.829-1.818-4.015-3.914l-2.729-30.482c-0.664,0.401-1.436,0.627-2.241,0.629l-30.006,0.02
				c-1.839,0-3.335-1.492-3.336-3.328c-0.001-0.892,0.345-1.729,0.974-2.358c0.628-0.63,1.465-0.978,2.355-0.979l28.397-0.018
				l2.925-7.961c0.479-1.306,1.735-2.184,3.124-2.184c0.147,0,0.297,0.01,0.443,0.029c1.555,0.206,2.74,1.443,2.88,3.006
				l1.111,12.41l3.677-57.05c0.113-1.741,1.568-3.11,3.313-3.118c1.751,0,3.211,1.356,3.338,3.09l2.604,35.691l0.043-0.189
				c0.339-1.529,1.67-2.602,3.235-2.61c1.574,0,2.909,1.059,3.263,2.575l3.826,16.377c25.998-0.027-1.624-0.292,39.275-0.329
				c-0.689-0.637-1.372-1.275-2.047-1.921c-2.24-2.148-4.83-4.738-7.092-7.676c-2.596-3.356-4.264-6.576-5.098-9.838
				c-0.191-0.814-0.414-1.844-0.505-2.92c-0.089-0.915-0.111-1.86-0.067-2.868c0.082-1.962,0.4-3.858,0.945-5.634
				c0.53-1.789,1.318-3.546,2.34-5.203c0.982-1.604,2.199-3.098,3.614-4.441c1.458-1.359,3.028-2.489,4.68-3.365
				c1.611-0.878,3.402-1.563,5.306-2.025c0.329-0.086,0.654-0.148,0.941-0.204c0.131-0.024,0.247-0.047,0.363-0.071
				c0.084-0.02,0.172-0.034,0.26-0.046c0.105-0.014,0.216-0.031,0.327-0.049c0.329-0.052,0.663-0.104,1.034-0.135
				c0.363-0.038,0.815-0.085,1.331-0.104c0.267-0.018,0.539-0.025,0.854-0.025c0.135,0,0.566,0.005,0.566,0.005
				c0.046,0.001,0.102,0.003,0.157,0.005c1.103,0.066,2.026,0.204,2.995,0.447c0.898,0.223,1.87,0.558,2.805,0.969
				c2.255,0.996,4.504,2.478,6.839,4.509c0.649-0.625,1.295-1.203,1.95-1.745c1.676-1.379,3.235-2.412,4.773-3.164
				c1.919-0.956,3.892-1.521,5.851-1.673c0.483-0.034,0.964-0.052,1.444-0.052c1.412,0,2.878,0.145,4.357,0.43
				c3.879,0.762,7.455,2.514,10.348,5.066c2.918,2.545,5.12,5.859,6.359,9.58c0.602,1.766,0.981,3.667,1.127,5.64
				c0.146,2.099,0.002,4.03-0.439,5.913c-0.724,3.226-2.31,6.525-4.844,10.07c-2.215,3.073-4.708,5.772-6.856,8.008
				c-0.772,0.801-1.555,1.596-2.341,2.384c27.428-0.024,11.944,0.403,29.825,0.366l3.863-10.517c0.48-1.306,1.736-2.183,3.126-2.183
				c0.146,0,0.294,0.009,0.438,0.028c1.559,0.206,2.744,1.442,2.885,3.006l0.56,6.259l3.75-58.18
				c0.112-1.741,1.567-3.111,3.312-3.118c1.751,0,3.212,1.356,3.338,3.09l3.053,41.832c0.581-0.993,1.647-1.632,2.853-1.64
				c1.576,0,2.91,1.057,3.267,2.568l4.428,18.813h28.51c1.838,0,3.333,1.496,3.333,3.333c0,1.838-1.495,3.333-3.333,3.333h-31.149
				c-1.555,0-2.889-1.057-3.244-2.569l-1.694-7.198l-1.31,5.898c-0.197,0.887-0.753,1.674-1.527,2.156
				c-0.54,0.336-1.164,0.516-1.804,0.516c-0.256,0-0.51-0.029-0.757-0.086c-1.475-0.334-2.565-1.623-2.649-3.135l-1.092-14.96
				l-3.212,49.844c-0.119,1.876-1.683,3.347-3.559,3.347h-0.001c-0.082,0-0.164-0.003-0.246-0.009
				c-1.767-0.118-3.167-1.485-3.324-3.252l-2.854-31.884c-0.678,0.847-1.72,1.369-2.843,1.369l-39.135-0.355
				c-2.079,0-3.771-1.689-3.773-3.766c0-1.322,0.7-2.55,1.814-3.229l1.163-1.146c1.834-1.807,3.73-3.674,5.527-5.537
				c1.982-2.063,4.275-4.543,6.243-7.273c2-2.797,3.232-5.309,3.763-7.674c0.293-1.252,0.386-2.536,0.288-3.945
				c-0.104-1.399-0.371-2.744-0.795-3.989c-0.87-2.61-2.404-4.923-4.439-6.698c-2.019-1.781-4.514-3.001-7.224-3.533
				c-1.055-0.203-2.095-0.307-3.088-0.307c-0.321,0-0.641,0.011-0.951,0.033c-1.062,0.082-2.24,0.43-3.393,1.004
				c-1.099,0.537-2.2,1.273-3.478,2.325c-1.061,0.878-2.125,1.907-3.25,3.138c-0.729,0.797-1.764,1.253-2.843,1.253
				c-0.962,0-1.882-0.356-2.592-1.004c-0.038-0.034-0.085-0.078-0.128-0.122c-2.55-2.498-4.752-4.115-6.908-5.068
				c-0.586-0.258-1.186-0.466-1.728-0.6c-0.557-0.141-1.053-0.215-1.708-0.257c0,0-0.296-0.004-0.408-0.004
				c-0.146,0-0.285,0.003-0.434,0.013c-0.049,0.004-0.094,0.006-0.14,0.008c-0.3,0.01-0.623,0.043-0.966,0.078l-0.076,0.008
				c-0.164,0.014-0.344,0.044-0.533,0.074c-0.127,0.02-0.257,0.039-0.385,0.059c-0.118,0.023-0.236,0.046-0.354,0.069
				c-0.205,0.039-0.391,0.073-0.561,0.118l-0.039,0.01c-1.366,0.332-2.633,0.813-3.767,1.43c-1.16,0.615-2.254,1.403-3.267,2.349
				c-0.978,0.928-1.824,1.966-2.505,3.075c-0.715,1.162-1.265,2.386-1.637,3.641c-0.387,1.26-0.609,2.596-0.667,3.991
				c-0.03,0.698-0.016,1.347,0.045,1.984c0.046,0.534,0.15,1.123,0.341,1.933c0.591,2.309,1.87,4.728,3.901,7.354
				c1.994,2.591,4.366,4.958,6.424,6.933c1.974,1.885,4.066,3.768,6.092,5.588l0.505,0.454c1.237,0.688,2.02,1.997,2.02,3.429v0.137
				c0.002,1.044-0.404,2.029-1.146,2.772c-0.729,0.729-1.743,1.148-2.784,1.148c-0.345,0-0.684-0.044-1.011-0.133
				c-43.182,0.039-8.136,0.296-47.551,0.336c-1.912,0-3.551-1.299-3.988-3.159l-0.964-4.125l-0.609,2.741
				c-0.418,1.877-2.117,3.238-4.04,3.239c-0.298,0-0.598-0.033-0.891-0.098c-1.767-0.392-3.094-1.926-3.23-3.729l-0.329-4.511
				l-2.535,39.324c-0.072,1.145-0.588,2.193-1.452,2.953C900.005,542.436,898.998,542.816,897.955,542.816z"/>
			<path fill-rule="evenodd" clip-rule="evenodd" fill="#DC2A51" d="M896.959,540.457c-0.051,0-0.102-0.002-0.152-0.004
				c-1.142-0.074-2.079-0.99-2.18-2.13l-3.307-36.94l-1.37,3.729c-0.346,0.938-1.249,1.568-2.249,1.57l-30.005,0.021
				c-0.001,0-0.001,0-0.001,0c-0.758,0-1.372-0.614-1.373-1.371c0-0.759,0.613-1.373,1.371-1.374l29.765-0.02l3.396-9.243
				c0.222-0.603,0.827-0.973,1.468-0.888c0.637,0.085,1.13,0.6,1.188,1.238l3.382,37.781l5.315-82.471
				c0.047-0.72,0.643-1.281,1.363-1.283c0.002,0,0.004,0,0.006,0c0.719,0,1.317,0.555,1.369,1.272l3.576,49.015l2.938-13.231
				c0.14-0.626,0.692-1.071,1.332-1.075c0.003,0,0.006,0,0.008,0c0.638,0,1.191,0.439,1.337,1.061l4.18,17.893l45.898-0.334
				c-1.913-1.721-3.877-3.494-5.761-5.294c-2.185-2.097-4.71-4.62-6.893-7.454c-2.431-3.144-3.985-6.131-4.752-9.129
				c-0.171-0.728-0.37-1.654-0.451-2.599c-0.081-0.842-0.102-1.703-0.062-2.618c0.074-1.797,0.365-3.527,0.861-5.143
				c0.485-1.639,1.205-3.242,2.134-4.752c0.895-1.458,2.003-2.82,3.296-4.045c1.323-1.236,2.75-2.262,4.249-3.058
				c1.48-0.807,3.122-1.434,4.867-1.855c0.273-0.073,0.561-0.128,0.838-0.182c0.132-0.025,0.264-0.05,0.395-0.079
				c0.034-0.006,0.069-0.013,0.104-0.018c0.137-0.018,0.272-0.039,0.408-0.061c0.276-0.043,0.562-0.088,0.865-0.114
				c0.391-0.04,0.808-0.084,1.266-0.099c0.425-0.03,0.795-0.025,1.153-0.021l0.14,0.002c0.023,0,0.045,0.002,0.066,0.003
				c0.977,0.058,1.79,0.179,2.638,0.392c0.796,0.197,1.658,0.494,2.491,0.861c3.165,1.397,5.825,3.649,7.698,5.428
				c1.058-1.115,2.088-2.086,3.131-2.949c1.552-1.277,2.985-2.229,4.384-2.912c1.703-0.848,3.436-1.348,5.141-1.48
				c1.692-0.119,3.465-0.001,5.279,0.349c3.534,0.694,6.789,2.288,9.422,4.61c2.661,2.322,4.667,5.343,5.797,8.731
				c0.55,1.616,0.897,3.356,1.031,5.163c0.132,1.895,0.004,3.633-0.394,5.321c-0.667,2.979-2.149,6.052-4.529,9.378
				c-2.141,2.971-4.575,5.605-6.676,7.791c-1.852,1.922-3.782,3.822-5.649,5.66l-0.047,0.046l35.964,0.36l4.335-11.799
				c0.222-0.603,0.825-0.973,1.468-0.888c0.637,0.084,1.13,0.599,1.188,1.238l2.831,31.628l5.388-83.598
				c0.047-0.721,0.643-1.281,1.364-1.285c0.002,0,0.004,0,0.006,0c0.719,0,1.316,0.555,1.368,1.273l3.985,54.6l2.558-11.516
				c0.139-0.625,0.69-1.07,1.331-1.075c0.003,0,0.006,0,0.008,0c0.637,0,1.19,0.438,1.337,1.058l4.783,20.324h30.063
				c0.758,0,1.372,0.615,1.372,1.373s-0.614,1.371-1.372,1.371h-31.149c-0.637,0-1.189-0.438-1.336-1.058l-3.658-15.541
				l-3.168,14.265c-0.083,0.378-0.32,0.713-0.649,0.918c-0.323,0.201-0.718,0.268-1.089,0.183c-0.629-0.143-1.092-0.688-1.127-1.333
				l-3.171-43.449l-5.048,78.316c-0.056,0.887-0.824,1.57-1.713,1.508c-0.805-0.053-1.437-0.671-1.507-1.469l-3.595-40.156
				l-2.482,6.757l-1.572,1.098l-39.137-0.356c-0.998,0-1.81-0.811-1.812-1.808c0-0.698,0.407-1.341,1.038-1.64l1.32-1.302
				c1.854-1.825,3.771-3.714,5.599-5.607c2.031-2.114,4.385-4.659,6.422-7.487c2.159-3.019,3.496-5.765,4.085-8.393
				c0.336-1.43,0.442-2.9,0.331-4.51c-0.116-1.57-0.417-3.08-0.896-4.484c-0.977-2.933-2.707-5.539-5.006-7.543
				c-2.273-2.007-5.085-3.381-8.135-3.98c-1.576-0.303-3.109-0.406-4.554-0.306c-1.322,0.103-2.753,0.521-4.129,1.205
				c-1.229,0.601-2.45,1.415-3.851,2.566c-1.136,0.94-2.266,2.032-3.452,3.331c-0.702,0.768-1.896,0.822-2.665,0.121
				c-0.017-0.016-0.037-0.034-0.055-0.053c-2.745-2.689-5.131-4.432-7.511-5.482c-0.689-0.304-1.398-0.549-2.049-0.711
				c-0.68-0.17-1.31-0.264-2.105-0.313l-0.109-0.001c-0.337-0.005-0.628-0.009-0.947,0.015c-0.02,0.002-0.038,0.002-0.057,0.004
				c-0.37,0.012-0.729,0.049-1.11,0.088c-0.009,0.001-0.03,0.004-0.039,0.004c-0.205,0.018-0.432,0.053-0.67,0.09
				c-0.14,0.021-0.279,0.044-0.418,0.063c-0.131,0.028-0.264,0.053-0.396,0.079c-0.243,0.047-0.473,0.091-0.684,0.146
				c-1.54,0.374-2.958,0.914-4.242,1.612c-1.298,0.689-2.528,1.574-3.667,2.639c-1.11,1.053-2.068,2.228-2.838,3.484
				c-0.804,1.306-1.425,2.688-1.846,4.107c-0.431,1.404-0.681,2.902-0.746,4.467c-0.034,0.789-0.017,1.525,0.054,2.253
				c0.052,0.614,0.169,1.286,0.382,2.193c0.666,2.603,2.062,5.263,4.26,8.105c2.073,2.692,4.509,5.124,6.617,7.147
				c1.998,1.908,4.103,3.801,6.139,5.632l0.697,0.628c0.697,0.307,1.178,1.006,1.178,1.797v0.137
				c0.001,0.522-0.203,1.017-0.573,1.388c-0.544,0.545-1.386,0.722-2.103,0.44l-47.857,0.336c-0.996,0-1.85-0.678-2.078-1.646
				l-2.92-12.503l-2.475,11.142c-0.262,1.172-1.426,1.909-2.596,1.652c-0.928-0.206-1.625-1.014-1.697-1.964l-2.405-32.966
				l-4.37,67.802c-0.039,0.622-0.32,1.193-0.79,1.606C898.069,540.254,897.527,540.457,896.959,540.457z"/>
			<path fill-rule="evenodd" clip-rule="evenodd" fill="#DC2A51" d="M896.953,540.955l-0.076-0.001h-0.016l-0.076-0.003h-0.01
				c-0.693-0.045-1.324-0.346-1.796-0.807c-0.473-0.461-0.787-1.085-0.849-1.778l-3.108-34.725l-0.604,1.642
				c-0.208,0.566-0.586,1.041-1.063,1.373c-0.476,0.332-1.051,0.523-1.655,0.523l-30.005,0.021v0.002h-0.001
				c-0.516,0-0.982-0.21-1.321-0.548s-0.549-0.807-0.549-1.323c-0.001-0.517,0.207-0.984,0.545-1.322
				c0.338-0.339,0.807-0.549,1.323-0.55l29.416-0.02l3.275-8.917c0.151-0.411,0.435-0.744,0.79-0.958
				c0.352-0.213,0.775-0.31,1.211-0.252c0.435,0.058,0.82,0.262,1.106,0.561c0.286,0.298,0.474,0.691,0.513,1.129l2.804,31.33
				l4.899-76.008c0.031-0.49,0.251-0.928,0.585-1.242c0.333-0.314,0.783-0.507,1.274-0.508l0.002-0.002h0.006
				c0.489,0,0.938,0.189,1.274,0.502c0.335,0.311,0.558,0.746,0.593,1.234l3.328,45.627l2.203-9.914
				c0.095-0.428,0.33-0.793,0.651-1.053c0.32-0.258,0.728-0.411,1.164-0.414l0.002-0.002h0.008c0.434,0,0.841,0.15,1.164,0.407
				c0.321,0.255,0.56,0.616,0.659,1.04l4.09,17.506l44.213-0.323c-0.599-0.54-1.232-1.115-1.938-1.761
				c-0.985-0.902-1.954-1.802-2.877-2.684l-0.002-0.001c-1.098-1.054-2.282-2.215-3.465-3.468c-1.187-1.257-2.374-2.609-3.477-4.041
				c-1.235-1.599-2.249-3.156-3.049-4.693c-0.806-1.547-1.399-3.08-1.793-4.617l-0.002-0.01c-0.084-0.359-0.177-0.775-0.264-1.241
				c-0.084-0.464-0.158-0.95-0.199-1.43h0.002c-0.041-0.43-0.067-0.865-0.078-1.312c-0.011-0.449-0.006-0.904,0.015-1.369
				c0.038-0.922,0.132-1.823,0.278-2.699c0.147-0.877,0.349-1.734,0.603-2.563l0,0c0.248-0.84,0.558-1.672,0.925-2.488
				c0.364-0.813,0.787-1.609,1.263-2.383l0,0c0.457-0.747,0.972-1.471,1.537-2.165c0.564-0.692,1.179-1.355,1.84-1.981l0.004-0.004
				c0.672-0.629,1.376-1.207,2.105-1.732c0.731-0.525,1.483-0.994,2.25-1.401l0.001,0.001c0.765-0.416,1.564-0.784,2.392-1.1
				c0.824-0.313,1.688-0.58,2.582-0.797l-0.001-0.001c0.288-0.077,0.581-0.134,0.862-0.188l0.009-0.002h0.004l0.011-0.002v-0.001
				c0.124-0.023,0.25-0.048,0.37-0.074l0.012-0.002l0.052-0.01l0.016-0.002l0.053-0.008l0.012-0.002l0.333-0.051l0.001,0.002
				l0.063-0.01c0.161-0.025,0.319-0.051,0.43-0.065c0.162-0.022,0.321-0.042,0.471-0.055v0.001c0.222-0.022,0.449-0.047,0.607-0.061
				c0.196-0.016,0.413-0.031,0.666-0.039l0,0c0.422-0.029,0.804-0.025,1.172-0.021h0.021l0.134,0.002v-0.002
				c0.03,0,0.064,0.002,0.104,0.005v0.001c0.503,0.029,0.962,0.076,1.401,0.141c0.446,0.066,0.879,0.152,1.319,0.264l0,0
				c0.405,0.101,0.835,0.229,1.272,0.381c0.438,0.15,0.875,0.322,1.297,0.508h0.002c1.617,0.713,3.106,1.646,4.43,2.628
				c1.151,0.854,2.176,1.743,3.049,2.556c0.42-0.433,0.836-0.843,1.248-1.23c0.532-0.502,1.059-0.968,1.583-1.402h0.002
				c0.792-0.652,1.552-1.22,2.29-1.71c0.748-0.496,1.473-0.915,2.188-1.265c0.878-0.438,1.767-0.785,2.656-1.041l0.001,0.001
				c0.896-0.257,1.789-0.423,2.669-0.491h0.004c0.866-0.061,1.753-0.061,2.655-0.002c0.903,0.061,1.823,0.18,2.751,0.358h0.002
				c1.807,0.354,3.545,0.942,5.172,1.737c1.623,0.795,3.133,1.799,4.482,2.988c1.364,1.191,2.562,2.561,3.561,4.066
				c0.997,1.501,1.8,3.143,2.38,4.88h0.001c0.283,0.831,0.514,1.692,0.689,2.573c0.176,0.88,0.299,1.789,0.367,2.715v0.002
				c0.067,0.971,0.068,1.902,0.002,2.807c-0.067,0.909-0.203,1.792-0.407,2.661h-0.001c-0.343,1.528-0.893,3.075-1.659,4.662
				c-0.764,1.581-1.744,3.206-2.949,4.892l-0.002,0.002c-1.081,1.501-2.235,2.914-3.382,4.227c-1.149,1.315-2.287,2.525-3.338,3.619
				c-1.59,1.648-3.237,3.281-4.853,4.874l34.413,0.345l4.213-11.469c0.151-0.412,0.435-0.744,0.789-0.959
				c0.351-0.212,0.775-0.309,1.212-0.251c0.435,0.058,0.82,0.262,1.105,0.56c0.286,0.299,0.474,0.692,0.514,1.128v0.002
				l2.254,25.176l4.971-77.134c0.032-0.492,0.251-0.93,0.585-1.244c0.334-0.313,0.783-0.506,1.275-0.508l0.002-0.002h0.006
				c0.489,0,0.938,0.191,1.274,0.503c0.335,0.312,0.557,0.746,0.593,1.235l3.736,51.211l1.821-8.199
				c0.095-0.428,0.331-0.793,0.651-1.052s0.727-0.411,1.164-0.414l0.002-0.002h0.008c0.432,0,0.838,0.149,1.161,0.405h0.002
				c0.321,0.256,0.56,0.616,0.66,1.039l4.692,19.938h29.667c0.517,0,0.985,0.21,1.323,0.549c0.339,0.338,0.549,0.807,0.549,1.324
				c0,0.516-0.21,0.984-0.549,1.323c-0.338,0.339-0.807,0.548-1.323,0.548h-31.149c-0.432,0-0.837-0.149-1.16-0.405
				c-0.323-0.255-0.563-0.616-0.662-1.038l-3.158-13.42l-2.695,12.137c-0.056,0.254-0.164,0.494-0.313,0.703v0.002
				c-0.148,0.21-0.34,0.391-0.56,0.529c-0.217,0.135-0.458,0.225-0.708,0.267c-0.246,0.042-0.504,0.035-0.754-0.021
				c-0.424-0.097-0.791-0.327-1.058-0.643c-0.265-0.313-0.433-0.71-0.458-1.142l0,0l-2.643-36.203l-4.58,71.066l0,0v0.006v0.006
				c-0.04,0.576-0.31,1.084-0.713,1.439c-0.403,0.357-0.942,0.561-1.52,0.524l0,0l-0.006-0.001h-0.006
				c-0.523-0.034-0.992-0.254-1.343-0.596c-0.352-0.344-0.583-0.808-0.629-1.328h0.003l-3.397-37.941l-1.716,4.671l-0.055,0.146
				l-0.129,0.091l-1.572,1.098l-0.131,0.091l-0.158-0.001l-39.133-0.356v0.002c-0.635,0-1.212-0.259-1.63-0.677
				c-0.419-0.417-0.679-0.995-0.68-1.631h-0.002c0-0.444,0.13-0.872,0.36-1.235c0.216-0.34,0.519-0.624,0.885-0.815l1.264-1.246
				l0.059-0.058c1.832-1.804,3.726-3.669,5.53-5.54c1.015-1.056,2.107-2.218,3.193-3.459c1.088-1.243,2.176-2.575,3.183-3.972
				h-0.001c1.062-1.484,1.922-2.902,2.589-4.272c0.661-1.36,1.131-2.668,1.416-3.94v-0.004c0.162-0.689,0.269-1.389,0.321-2.109
				c0.054-0.725,0.052-1.472-0.002-2.252c-0.057-0.762-0.158-1.512-0.305-2.244c-0.146-0.73-0.335-1.438-0.565-2.115v-0.004
				c-0.473-1.422-1.131-2.766-1.949-4c-0.818-1.232-1.797-2.352-2.912-3.324l-0.002-0.002c-1.102-0.973-2.336-1.794-3.663-2.443
				c-1.326-0.648-2.752-1.128-4.237-1.42l0,0c-0.767-0.147-1.524-0.246-2.265-0.297c-0.736-0.049-1.457-0.05-2.155-0.002v0.001
				c-0.631,0.049-1.285,0.173-1.944,0.364c-0.661,0.193-1.335,0.459-2.001,0.79l-0.003,0.001c-0.601,0.294-1.194,0.637-1.803,1.042
				c-0.62,0.413-1.263,0.896-1.949,1.46l0.001,0.001c-0.563,0.466-1.121,0.966-1.68,1.506c-0.562,0.541-1.133,1.132-1.722,1.776
				h-0.002c-0.444,0.484-1.044,0.746-1.653,0.773s-1.229-0.177-1.715-0.619l-0.006-0.006l-0.029-0.027l-0.014-0.012l-0.025-0.025
				v-0.002c-1.355-1.328-2.618-2.419-3.83-3.303c-1.203-0.879-2.365-1.56-3.526-2.072c-0.344-0.152-0.681-0.285-1-0.395
				c-0.325-0.113-0.65-0.211-0.967-0.289h-0.002c-0.321-0.08-0.634-0.144-0.96-0.191c-0.331-0.049-0.674-0.084-1.053-0.107l0,0
				l-0.087-0.001c-0.166-0.002-0.321-0.004-0.471-0.003c-0.132,0.002-0.271,0.006-0.434,0.018h-0.016l-0.057,0.004h-0.006
				c-0.152,0.004-0.33,0.017-0.523,0.033h-0.002c-0.234,0.02-0.391,0.037-0.55,0.053h-0.004l-0.039,0.004l-0.006,0.002
				c-0.105,0.009-0.202,0.021-0.295,0.033c-0.13,0.018-0.235,0.035-0.338,0.051h-0.002l-0.209,0.032l-0.004,0.002l-0.205,0.03
				c-0.186,0.039-0.229,0.047-0.3,0.061h-0.002l-0.076,0.015c-0.134,0.025-0.257,0.05-0.346,0.067
				c-0.103,0.021-0.204,0.045-0.305,0.071l-0.01,0.002c-0.745,0.181-1.465,0.403-2.154,0.665s-1.346,0.563-1.967,0.9l-0.004,0.004
				c-0.637,0.338-1.249,0.719-1.835,1.141c-0.592,0.426-1.169,0.9-1.727,1.422h-0.001c-0.539,0.512-1.041,1.053-1.5,1.616
				c-0.458,0.563-0.877,1.153-1.251,1.763v0.002c-0.395,0.641-0.742,1.293-1.037,1.951c-0.298,0.664-0.551,1.344-0.756,2.035
				l-0.002,0.006c-0.208,0.678-0.373,1.382-0.494,2.107c-0.121,0.727-0.199,1.474-0.23,2.232v0.002
				c-0.017,0.387-0.021,0.758-0.013,1.115c0.009,0.361,0.03,0.716,0.063,1.069l0.002,0.006c0.025,0.295,0.066,0.603,0.125,0.942l0,0
				c0.062,0.35,0.142,0.732,0.244,1.169l0,0c0.323,1.265,0.825,2.544,1.512,3.853c0.694,1.321,1.578,2.674,2.658,4.071
				c1.024,1.331,2.142,2.601,3.264,3.788c1.126,1.19,2.257,2.299,3.305,3.305c0.98,0.937,2.006,1.887,3.045,2.836
				c1.016,0.926,2.058,1.863,3.082,2.784l0.641,0.577c0.407,0.197,0.752,0.502,0.997,0.875c0.255,0.39,0.403,0.854,0.403,1.344
				v0.137h-0.002c0,0.326-0.063,0.646-0.185,0.94c-0.122,0.296-0.303,0.567-0.533,0.799c-0.343,0.343-0.778,0.57-1.239,0.667
				c-0.43,0.09-0.884,0.066-1.307-0.08l-47.766,0.336l-0.002,0.002c-0.611,0-1.182-0.211-1.635-0.569h-0.003
				c-0.451-0.358-0.786-0.867-0.926-1.464l-2.423-10.372l-2,9.005c-0.16,0.719-0.599,1.307-1.175,1.674
				c-0.578,0.367-1.296,0.516-2.013,0.358l-0.002-0.002c-0.571-0.126-1.072-0.438-1.439-0.862c-0.367-0.426-0.604-0.966-0.648-1.55
				v-0.002l-1.877-25.719l-3.902,60.551c-0.023,0.376-0.122,0.737-0.284,1.069c-0.164,0.333-0.392,0.633-0.674,0.881h-0.002
				c-0.26,0.229-0.555,0.404-0.87,0.523c-0.318,0.121-0.656,0.184-0.999,0.184L896.953,540.955L896.953,540.955z M896.904,539.958
				l0.055,0.001v-0.002c0.227,0,0.445-0.04,0.647-0.116c0.204-0.077,0.396-0.191,0.564-0.341h-0.001
				c0.187-0.164,0.336-0.357,0.439-0.568c0.104-0.213,0.167-0.447,0.183-0.694l4.37-67.802l0.468-7.252l0.528,7.248l2.404,32.964
				h0.001c0.027,0.366,0.176,0.706,0.406,0.972c0.231,0.268,0.544,0.463,0.897,0.542l0.001-0.001c0.453,0.1,0.905,0.007,1.267-0.223
				c0.362-0.23,0.638-0.599,0.737-1.049l2.475-11.142l0.475-2.137l0.498,2.131l2.92,12.503c0.088,0.371,0.295,0.687,0.575,0.909
				l-0.001,0.001c0.279,0.221,0.634,0.35,1.018,0.35v0.002l47.855-0.336l0.098-0.001l0.086,0.034
				c0.267,0.104,0.558,0.124,0.832,0.066s0.534-0.191,0.735-0.394c0.139-0.139,0.246-0.3,0.318-0.475
				c0.072-0.176,0.11-0.366,0.11-0.562h-0.002v-0.137c0-0.291-0.089-0.566-0.239-0.797c-0.155-0.236-0.377-0.428-0.641-0.543
				l-0.073-0.032l-0.059-0.054l-0.697-0.628c-1.012-0.909-2.04-1.835-3.086-2.789c-1.021-0.933-2.047-1.882-3.063-2.853
				l-0.002-0.002c-1.059-1.017-2.202-2.137-3.339-3.34c-1.141-1.207-2.279-2.5-3.327-3.862c-1.117-1.445-2.032-2.845-2.752-4.216
				c-0.726-1.382-1.255-2.734-1.598-4.071l-0.002-0.009c-0.109-0.467-0.193-0.871-0.257-1.234v-0.002
				c-0.065-0.376-0.11-0.712-0.137-1.03h0.001c-0.035-0.372-0.059-0.749-0.067-1.134c-0.009-0.387-0.005-0.78,0.013-1.182
				c0.033-0.807,0.115-1.593,0.242-2.355c0.127-0.764,0.303-1.509,0.523-2.23c0.217-0.729,0.485-1.451,0.803-2.159
				c0.32-0.714,0.687-1.405,1.096-2.069h0.001c0.396-0.645,0.841-1.271,1.328-1.87c0.488-0.6,1.021-1.173,1.591-1.714l0.004-0.004
				c0.581-0.543,1.191-1.044,1.824-1.5c0.637-0.457,1.287-0.863,1.948-1.215l0.001,0.002c0.664-0.361,1.361-0.681,2.087-0.957
				c0.72-0.273,1.474-0.506,2.262-0.697v-0.001c0.11-0.028,0.229-0.056,0.355-0.082c0.14-0.028,0.253-0.052,0.361-0.072l0.074-0.015
				l0,0l0.313-0.062l0.029-0.006l0.209-0.03v0.001l0.203-0.032l0,0c0.136-0.021,0.264-0.041,0.357-0.055
				c0.13-0.018,0.249-0.033,0.35-0.041v0.002l0.029-0.004l0,0c0.22-0.023,0.435-0.045,0.566-0.057l0,0
				c0.172-0.015,0.359-0.027,0.573-0.033l0,0l0.041-0.002v-0.002c0.155-0.011,0.322-0.016,0.5-0.018c0.16-0.002,0.32,0,0.49,0.003
				l0.11,0.001h0.022c0.417,0.025,0.788,0.063,1.14,0.115c0.357,0.053,0.701,0.122,1.058,0.212v0.001
				c0.333,0.082,0.687,0.188,1.051,0.314c0.37,0.128,0.733,0.27,1.078,0.422c1.218,0.537,2.439,1.254,3.71,2.182
				c1.26,0.92,2.563,2.043,3.949,3.402l0.006,0.004l0.025,0.025l-0.001,0.001l0.01,0.009h0.001c0.282,0.258,0.645,0.377,1,0.361
				c0.354-0.017,0.703-0.168,0.961-0.449h-0.001c0.597-0.654,1.185-1.26,1.769-1.824c0.586-0.564,1.162-1.082,1.734-1.556h0.002
				c0.713-0.587,1.382-1.088,2.028-1.52c0.657-0.438,1.288-0.803,1.916-1.109c0.709-0.353,1.439-0.64,2.168-0.853
				c0.731-0.213,1.454-0.35,2.147-0.403h0.004c0.742-0.052,1.509-0.052,2.292,0.001c0.78,0.053,1.579,0.157,2.388,0.313h0.002
				c1.565,0.308,3.073,0.816,4.483,1.506c1.407,0.688,2.714,1.558,3.884,2.59c1.184,1.031,2.221,2.219,3.087,3.523
				c0.863,1.301,1.56,2.725,2.063,4.234h0.001c0.247,0.725,0.447,1.475,0.601,2.241s0.261,1.559,0.32,2.368v0.002
				c0.058,0.828,0.059,1.621,0.002,2.391c-0.056,0.774-0.171,1.525-0.345,2.266h-0.001c-0.304,1.354-0.798,2.732-1.49,4.155
				c-0.688,1.414-1.576,2.879-2.674,4.413l-0.002,0.002c-1.029,1.429-2.138,2.784-3.242,4.048c-1.107,1.267-2.208,2.436-3.225,3.493
				c-1.811,1.878-3.711,3.75-5.55,5.561l-0.059,0.058l-1.32,1.302l-0.061,0.061l-0.076,0.035c-0.228,0.107-0.416,0.279-0.547,0.484
				c-0.13,0.206-0.204,0.449-0.204,0.704h-0.002c0.001,0.36,0.149,0.687,0.386,0.925c0.237,0.236,0.565,0.383,0.928,0.383
				l0.004,0.002l38.979,0.355l1.312-0.916l2.43-6.611l0.766-2.084l0.198,2.213l3.596,40.156h0.002
				c0.023,0.276,0.145,0.521,0.327,0.699c0.185,0.18,0.434,0.297,0.714,0.314v0.001h0.004h0.004
				c0.304,0.019,0.587-0.087,0.798-0.273c0.212-0.188,0.354-0.456,0.376-0.76l0,0v-0.005v-0.004l5.048-78.316l0.468-7.25
				l0.528,7.246l3.171,43.449v0.008c0.012,0.211,0.094,0.406,0.224,0.56c0.13,0.154,0.31,0.269,0.515,0.315
				c0.121,0.027,0.248,0.029,0.371,0.009c0.121-0.021,0.238-0.064,0.345-0.13c0.108-0.067,0.201-0.156,0.274-0.26h0.001
				c0.072-0.102,0.124-0.219,0.151-0.342l3.168-14.265l0.474-2.129l0.499,2.122l3.658,15.542c0.047,0.198,0.157,0.366,0.307,0.484
				c0.148,0.118,0.338,0.187,0.543,0.187h31.149c0.241,0,0.459-0.098,0.616-0.255c0.158-0.157,0.256-0.376,0.256-0.616
				c0-0.242-0.098-0.46-0.256-0.617c-0.157-0.158-0.375-0.256-0.616-0.256h-30.063h-0.396l-0.091-0.387l-4.783-20.323
				c-0.046-0.196-0.158-0.366-0.308-0.485h0.001c-0.149-0.117-0.339-0.187-0.544-0.187h-0.008v-0.002
				c-0.201,0.002-0.392,0.074-0.541,0.195c-0.15,0.12-0.26,0.291-0.304,0.489l-2.558,11.516l-0.737,3.318l-0.247-3.391l-3.985-54.6
				c-0.017-0.228-0.119-0.43-0.275-0.576c-0.155-0.144-0.365-0.232-0.595-0.232h-0.006v-0.002c-0.229,0.002-0.438,0.092-0.593,0.238
				c-0.156,0.146-0.259,0.351-0.273,0.579l-5.388,83.599l-0.417,6.463l-0.577-6.451l-2.831-31.626l0,0
				c-0.019-0.204-0.106-0.388-0.24-0.526c-0.134-0.141-0.314-0.236-0.516-0.263c-0.204-0.026-0.402,0.019-0.567,0.118
				s-0.297,0.255-0.367,0.447l-4.335,11.799l-0.121,0.33l-0.352-0.004l-35.964-0.361l-1.208-0.012l0.865-0.844l0.046-0.045
				l0.088-0.086c1.835-1.808,3.73-3.675,5.55-5.563c1.049-1.092,2.18-2.293,3.308-3.584c1.129-1.293,2.264-2.682,3.322-4.15h-0.001
				c1.173-1.641,2.125-3.217,2.864-4.747c0.735-1.522,1.261-3,1.586-4.449v-0.006c0.191-0.819,0.319-1.649,0.383-2.505
				c0.063-0.859,0.063-1.745-0.002-2.668l0,0c-0.064-0.879-0.183-1.745-0.352-2.59c-0.168-0.846-0.388-1.664-0.654-2.448v-0.004
				c-0.549-1.649-1.314-3.212-2.267-4.646c-0.951-1.434-2.09-2.735-3.386-3.867l-0.002-0.002c-1.282-1.131-2.718-2.086-4.262-2.842
				c-1.543-0.754-3.199-1.313-4.926-1.652l0,0c-0.887-0.17-1.764-0.285-2.624-0.342c-0.856-0.056-1.699-0.056-2.521,0.002l0,0
				c-0.823,0.064-1.65,0.217-2.472,0.453v0.002c-0.829,0.238-1.66,0.564-2.484,0.975l-0.004,0.002
				c-0.683,0.334-1.373,0.731-2.078,1.199c-0.716,0.476-1.448,1.022-2.207,1.646l0.001,0.002c-0.518,0.428-1.028,0.88-1.536,1.358
				c-0.516,0.485-1.031,1.001-1.553,1.55l-0.343,0.362l-0.361-0.345c-0.925-0.878-2.043-1.873-3.317-2.818
				c-1.266-0.938-2.69-1.831-4.238-2.514v-0.002c-0.41-0.18-0.821-0.342-1.221-0.479c-0.399-0.139-0.8-0.258-1.188-0.354h-0.002
				c-0.406-0.103-0.806-0.183-1.222-0.244c-0.42-0.063-0.854-0.105-1.323-0.134h-0.008l-0.03-0.001l-0.006-0.002l-0.14-0.002h-0.021
				c-0.335-0.004-0.683-0.008-1.094,0.021h-0.018c-0.197,0.006-0.413,0.021-0.633,0.039c-0.259,0.022-0.433,0.041-0.598,0.058
				l-0.01,0.002c-0.154,0.013-0.291,0.03-0.416,0.047c-0.176,0.024-0.3,0.044-0.414,0.062l-0.064,0.01l-0.002,0.002
				c-0.081,0.013-0.16,0.025-0.354,0.051l-0.024,0.004l0,0l-0.041,0.008l0,0c-0.132,0.029-0.262,0.054-0.39,0.078h-0.004
				l-0.01,0.002v0.001l-0.009,0.001c-0.267,0.052-0.544,0.105-0.796,0.173l-0.011,0.002c-0.845,0.204-1.671,0.46-2.47,0.765
				s-1.562,0.654-2.277,1.044l-0.005,0.004c-0.733,0.389-1.446,0.833-2.134,1.327c-0.688,0.494-1.359,1.047-2.009,1.653l0,0
				c-0.629,0.597-1.214,1.228-1.749,1.885c-0.536,0.657-1.023,1.345-1.46,2.056l-0.002,0.002c-0.452,0.734-0.854,1.493-1.201,2.267
				c-0.348,0.772-0.642,1.563-0.878,2.364l-0.002,0.006c-0.241,0.785-0.434,1.601-0.573,2.439c-0.141,0.841-0.23,1.702-0.267,2.576
				v0.002c-0.02,0.449-0.024,0.883-0.015,1.303c0.01,0.422,0.035,0.837,0.074,1.247l0.002,0.005c0.04,0.466,0.107,0.915,0.184,1.333
				c0.076,0.411,0.167,0.819,0.254,1.185l0,0c0.373,1.461,0.94,2.923,1.711,4.402c0.776,1.491,1.757,3,2.951,4.545
				c1.079,1.402,2.246,2.729,3.414,3.967c1.171,1.24,2.343,2.39,3.43,3.433c0.96,0.917,1.916,1.806,2.859,2.669
				c0.839,0.767,1.858,1.686,2.89,2.613l0.955,0.859l-1.287,0.01l-45.898,0.334l-0.397,0.004l-0.091-0.389l-4.18-17.893
				c-0.046-0.197-0.157-0.367-0.308-0.485c-0.149-0.118-0.339-0.188-0.543-0.188h-0.008v-0.002
				c-0.201,0.002-0.392,0.074-0.541,0.195c-0.15,0.121-0.261,0.292-0.305,0.489l-2.939,13.231l-0.736,3.318l-0.247-3.391
				l-3.576-49.016c-0.016-0.227-0.12-0.43-0.276-0.574c-0.155-0.145-0.365-0.232-0.595-0.232h-0.006v-0.002
				c-0.228,0.001-0.437,0.091-0.593,0.238c-0.155,0.146-0.258,0.35-0.272,0.578l-5.315,82.471l-0.417,6.465l-0.577-6.453
				l-3.382-37.781c-0.018-0.201-0.106-0.385-0.24-0.524s-0.313-0.235-0.515-0.263c-0.204-0.027-0.403,0.02-0.568,0.119
				c-0.164,0.1-0.297,0.254-0.367,0.446l-3.396,9.243l-0.12,0.326h-0.348l-29.765,0.02c-0.24,0-0.459,0.099-0.616,0.257
				c-0.158,0.159-0.256,0.378-0.256,0.619c0,0.24,0.098,0.458,0.256,0.616c0.157,0.157,0.376,0.255,0.618,0.255h0.001v0.002
				l30.005-0.021c0.396,0,0.772-0.126,1.085-0.344c0.312-0.218,0.559-0.529,0.696-0.9l1.369-3.729l0.767-2.086l0.198,2.215
				l3.307,36.939c0.04,0.447,0.244,0.852,0.551,1.15c0.308,0.301,0.717,0.496,1.164,0.525l0,0L896.904,539.958L896.904,539.958z"/>
			<path fill-rule="evenodd" clip-rule="evenodd" fill="#EF4367" d="M802.762,392.836v24.645h-22.873
				c-6.809,0-12.322-5.514-12.322-12.323c0-3.405,1.384-6.479,3.604-8.72c2.239-2.219,5.314-3.603,8.719-3.603L802.762,392.836z"/>
			<path fill-rule="evenodd" clip-rule="evenodd" fill="#DC2A51" d="M802.479,392.836v24.645h22.874
				c6.809,0,12.322-5.514,12.322-12.323c0-3.405-1.384-6.479-3.604-8.72c-2.239-2.219-5.315-3.603-8.719-3.603L802.479,392.836z"/>
			<path fill-rule="evenodd" clip-rule="evenodd" fill="#DC2A51" d="M797.72,435.006v24.645h-22.874
				c-6.809,0-12.322-5.514-12.322-12.322c0-3.404,1.384-6.479,3.604-8.72c2.239-2.22,5.315-3.603,8.719-3.603H797.72z"/>
			<path fill-rule="evenodd" clip-rule="evenodd" fill="#EF4367" d="M797.438,435.006v24.645h22.873
				c6.81,0,12.322-5.514,12.322-12.322c0-3.404-1.384-6.479-3.604-8.72c-2.239-2.22-5.314-3.603-8.719-3.603H797.438z"/>
			<path fill-rule="evenodd" clip-rule="evenodd" fill="#EF4367" d="M794.198,476.623v24.645h-22.873
				c-6.809,0-12.322-5.514-12.322-12.322c0-3.405,1.384-6.479,3.604-8.721c2.239-2.219,5.314-3.602,8.719-3.602H794.198z"/>
			<path fill-rule="evenodd" clip-rule="evenodd" fill="#DC2A51" d="M793.917,476.623v24.645h22.873
				c6.809,0,12.322-5.514,12.322-12.322c0-3.405-1.384-6.479-3.604-8.721c-2.24-2.219-5.315-3.602-8.719-3.602H793.917z"/>
			<path fill-rule="evenodd" clip-rule="evenodd" fill="#DC2A51" d="M787.075,626.354c12.922,0,23.461-10.538,23.461-23.46
				s-10.539-23.461-23.461-23.461c-12.921,0-23.46,10.539-23.46,23.461S774.154,626.354,787.075,626.354z"/>
			<path fill-rule="evenodd" clip-rule="evenodd" fill="#EF4367" d="M791.407,566.771c12.922,0,23.461-10.538,23.461-23.46
				s-10.539-23.46-23.461-23.46s-23.46,10.538-23.46,23.46S778.485,566.771,791.407,566.771z"/>
		</g>
	</g>
	<path fill-rule="evenodd" clip-rule="evenodd" fill="#FFFFFF" d="M863.589,582.509h35.034c1.734,0,3.153,1.419,3.153,3.153
		s-1.419,3.152-3.153,3.152h-35.034c-1.734,0-3.153-1.418-3.153-3.152S861.854,582.509,863.589,582.509z"/>
	<path fill-rule="evenodd" clip-rule="evenodd" fill="#FFFFFF" d="M861.797,593.821h62.229c1.734,0,3.153,1.419,3.153,3.153
		s-1.419,3.152-3.153,3.152h-62.229c-1.734,0-3.153-1.418-3.153-3.152S860.063,593.821,861.797,593.821z"/>
	<path fill-rule="evenodd" clip-rule="evenodd" fill="#FFFFFF" d="M860.744,605.928h62.229c1.734,0,3.153,1.418,3.153,3.152
		s-1.419,3.154-3.153,3.154h-62.229c-1.734,0-3.153-1.42-3.153-3.154S859.01,605.928,860.744,605.928z"/>
	<path fill-rule="evenodd" clip-rule="evenodd" fill="#FFFFFF" d="M1059.396,405.27h35.034c1.734,0,3.153,1.419,3.153,3.153
		s-1.419,3.153-3.153,3.153h-35.034c-1.734,0-3.153-1.418-3.153-3.153S1057.662,405.27,1059.396,405.27z"/>
</g>
<g>
	<path fill-rule="evenodd" clip-rule="evenodd" fill="#2F3E56" d="M1221.576,774.766H151.505c-10.33,0-18.704-8.374-18.704-18.703
		s8.374-18.703,18.704-18.703h1070.071c10.329,0,18.703,8.374,18.703,18.703S1231.905,774.766,1221.576,774.766z"/>
	<path fill-rule="evenodd" clip-rule="evenodd" fill="#2F3E56" d="M1167.538,815.628H208.722c-22.567,0-40.862-18.295-40.862-40.862
		H1208.4C1208.4,797.333,1190.105,815.628,1167.538,815.628z"/>
	<path opacity="0.1" fill-rule="evenodd" clip-rule="evenodd" d="M1202.889,795.196c3.485-6.015,5.512-12.979,5.512-20.431H167.859
		c0,7.451,2.027,14.416,5.512,20.431H1202.889z"/>
	<path opacity="0.15" fill-rule="evenodd" clip-rule="evenodd" fill="#FFFFFF" d="M802.966,774.766H278.784
		c-10.346,0-18.732-8.387-18.732-18.732s8.387-18.732,18.732-18.732h524.182c10.346,0,18.732,8.387,18.732,18.732
		S813.312,774.766,802.966,774.766z"/>
	<path opacity="0.1" fill-rule="evenodd" clip-rule="evenodd" d="M1140.15,774.766h-109.152c-10.329,0-18.703-8.374-18.703-18.703
		s8.374-18.703,18.703-18.703h109.152c10.33,0,18.703,8.374,18.703,18.703S1150.48,774.766,1140.15,774.766z"/>
</g>
<polygon opacity="0.3" fill-rule="evenodd" clip-rule="evenodd" fill="#FFFFFF" points="1000.841,393.203 931.608,622.207 
	983.387,622.207 1052.62,393.203 "/>
<g>
	<g>
		<g>
			<path fill-rule="evenodd" clip-rule="evenodd" fill="#C8B58B" d="M702.369,733.396c0,2.505-1.206,4.727-3.071,6.111h5.686
				c3.592,0,6.489-2.912,6.489-6.504v-10.131h-9.104V733.396z"/>
		</g>
		<g>
			<path fill-rule="evenodd" clip-rule="evenodd" fill="#C8B58B" d="M711.473,674.293v-25.129c0-3.591-2.897-6.485-6.489-6.485
				h-2.614v31.614H711.473z"/>
		</g>
		<g>
			<path fill-rule="evenodd" clip-rule="evenodd" fill="#E1CFA2" d="M702.369,733.396v-10.523H659.83v5.711
				c0,1.098-0.889,1.986-1.985,1.986h-0.001c-1.098,0-1.986-0.889-1.986-1.986v-5.711h-6.124v10.131
				c0,3.592,2.979,6.504,6.571,6.504h42.993C701.163,738.123,702.369,735.901,702.369,733.396z"/>
		</g>
		<g>
			<path fill-rule="evenodd" clip-rule="evenodd" fill="#E1CFA2" d="M655.857,666.017c0-1.097,0.889-1.985,1.986-1.985h0.001
				c1.097,0,1.985,0.889,1.985,1.985v8.276h42.539v-31.614h-46.064c-3.592,0-6.571,2.895-6.571,6.485v25.129h6.124V666.017z"/>
		</g>
		<g>
			<path fill-rule="evenodd" clip-rule="evenodd" fill="#ECDCB9" d="M655.857,728.584c0,1.098,0.889,1.986,1.986,1.986h0.001
				c1.097,0,1.985-0.889,1.985-1.986v-5.711h-3.973V728.584z"/>
		</g>
		<g>
			<path fill-rule="evenodd" clip-rule="evenodd" fill="#ECDCB9" d="M659.83,666.017c0-1.097-0.889-1.985-1.985-1.985h-0.001
				c-1.098,0-1.986,0.889-1.986,1.985v8.276h3.973V666.017z"/>
		</g>
		<rect x="702.396" y="674.317" fill-rule="evenodd" clip-rule="evenodd" fill="#DBCDAE" width="9.072" height="48.542"/>
		<g>
			<rect x="659.83" y="674.293" fill-rule="evenodd" clip-rule="evenodd" fill="#ECDCB9" width="42.539" height="48.58"/>
		</g>
		<g>
			<rect x="649.733" y="674.293" fill-rule="evenodd" clip-rule="evenodd" fill="#ECDCB9" width="6.124" height="48.58"/>
		</g>
		<rect x="655.817" y="674.317" fill-rule="evenodd" clip-rule="evenodd" fill="#F3E9D7" width="4.021" height="48.542"/>
	</g>
	<g>
		<g>
			<path fill-rule="evenodd" clip-rule="evenodd" fill="#EA7624" d="M711.147,630.265h-6.459c1.448,1.241,2.29,3.181,2.29,5.274
				v15.556c0,2.585-1.319,4.704-3.392,6.106h7.561c3.59,0,6.493-2.939,6.493-6.529v-13.9
				C717.641,633.182,714.737,630.265,711.147,630.265z"/>
			<path fill-rule="evenodd" clip-rule="evenodd" fill="#F78D26" d="M706.979,651.095v-15.556c0-2.094-0.842-4.033-2.29-5.274
				H650.11c-3.589,0-6.545,2.917-6.545,6.507v13.9c0,3.59,2.956,6.529,6.545,6.529h53.477
				C705.659,655.799,706.979,653.68,706.979,651.095z"/>
		</g>
		<path fill-rule="evenodd" clip-rule="evenodd" fill="#FFCA6A" d="M657.313,647.73c0,2.338-1.895,4.233-4.232,4.233h-0.14
			c-2.337,0-4.232-1.896-4.232-4.233v-7.809c0-2.338,1.896-4.232,4.232-4.232h0.14c2.338,0,4.232,1.895,4.232,4.232V647.73z"/>
	</g>
</g>
<g>
	<path fill-rule="evenodd" clip-rule="evenodd" fill="#B3B4B3" d="M668.31,666.159c5.825,0,10.547,4.722,10.547,10.546v52.257
		c0,5.824-4.722,10.546-10.547,10.546h-91.391c-5.824,0-10.547-4.722-10.547-10.546v-52.257c0-5.824,4.723-10.546,10.547-10.546
		H668.31z"/>
	<path fill-rule="evenodd" clip-rule="evenodd" fill="#9A9999" d="M669.575,700.598c1.256,0,2.274,1.018,2.274,2.273
		s-1.019,2.273-2.274,2.273h-93.848c-1.256,0-2.273-1.018-2.273-2.273s1.018-2.273,2.273-2.273H669.575z"/>
	<g>
		<g>
			<g>
				<circle fill-rule="evenodd" clip-rule="evenodd" fill="#D9DAD9" cx="584.403" cy="720.1" r="9.823"/>
				<circle fill-rule="evenodd" clip-rule="evenodd" fill="#FFFFFF" cx="583.95" cy="720.941" r="9.823"/>
				<path fill-rule="evenodd" clip-rule="evenodd" fill="#D9DAD9" d="M589.768,719.656c0.739,0.007,1.331,0.612,1.324,1.352
					c-0.009,0.738-0.613,1.332-1.353,1.323l-11.595-0.123c-0.739-0.008-1.332-0.613-1.324-1.353
					c0.008-0.738,0.613-1.331,1.353-1.323L589.768,719.656z"/>
			</g>
			<g>
				<circle fill-rule="evenodd" clip-rule="evenodd" fill="#D9DAD9" cx="584.403" cy="684.871" r="9.823"/>
				<circle fill-rule="evenodd" clip-rule="evenodd" fill="#FFFFFF" cx="583.95" cy="685.713" r="9.823"/>
				<path fill-rule="evenodd" clip-rule="evenodd" fill="#D9DAD9" d="M589.768,684.427c0.739,0.009,1.331,0.613,1.324,1.353
					c-0.009,0.738-0.613,1.332-1.353,1.324l-11.595-0.124c-0.739-0.008-1.332-0.613-1.324-1.353
					c0.008-0.738,0.613-1.331,1.353-1.323L589.768,684.427z"/>
			</g>
		</g>
		<g>
			<g>
				<circle fill-rule="evenodd" clip-rule="evenodd" fill="#D9DAD9" cx="610.028" cy="720.1" r="9.823"/>
				<circle fill-rule="evenodd" clip-rule="evenodd" fill="#FFFFFF" cx="609.575" cy="720.941" r="9.823"/>
				<path fill-rule="evenodd" clip-rule="evenodd" fill="#D9DAD9" d="M615.393,719.656c0.738,0.007,1.331,0.612,1.323,1.352
					c-0.008,0.738-0.613,1.332-1.352,1.323l-11.596-0.123c-0.738-0.008-1.331-0.613-1.323-1.353
					c0.008-0.738,0.613-1.331,1.352-1.323L615.393,719.656z"/>
			</g>
			<g>
				<circle fill-rule="evenodd" clip-rule="evenodd" fill="#D9DAD9" cx="610.028" cy="684.871" r="9.823"/>
				<circle fill-rule="evenodd" clip-rule="evenodd" fill="#FFFFFF" cx="609.575" cy="685.713" r="9.823"/>
				<path fill-rule="evenodd" clip-rule="evenodd" fill="#D9DAD9" d="M615.393,684.427c0.738,0.009,1.331,0.613,1.323,1.353
					c-0.008,0.738-0.613,1.332-1.352,1.324l-11.596-0.124c-0.738-0.008-1.331-0.613-1.323-1.353
					c0.008-0.738,0.613-1.331,1.352-1.323L615.393,684.427z"/>
			</g>
		</g>
		<g>
			<g>
				<circle fill-rule="evenodd" clip-rule="evenodd" fill="#D9DAD9" cx="635.652" cy="720.1" r="9.823"/>
				<circle fill-rule="evenodd" clip-rule="evenodd" fill="#FFFFFF" cx="635.2" cy="720.941" r="9.823"/>
				<path fill-rule="evenodd" clip-rule="evenodd" fill="#D9DAD9" d="M641.017,719.656c0.739,0.007,1.332,0.612,1.324,1.352
					c-0.008,0.738-0.613,1.332-1.353,1.323l-11.595-0.123c-0.739-0.008-1.332-0.613-1.324-1.353
					c0.008-0.738,0.613-1.331,1.353-1.323L641.017,719.656z"/>
			</g>
			<g>
				<circle fill-rule="evenodd" clip-rule="evenodd" fill="#D9DAD9" cx="635.652" cy="684.871" r="9.823"/>
				<circle fill-rule="evenodd" clip-rule="evenodd" fill="#FFFFFF" cx="635.2" cy="685.713" r="9.823"/>
				<path fill-rule="evenodd" clip-rule="evenodd" fill="#D9DAD9" d="M641.017,684.427c0.739,0.009,1.332,0.613,1.324,1.353
					c-0.008,0.738-0.613,1.332-1.353,1.324l-11.595-0.124c-0.739-0.008-1.332-0.613-1.324-1.353
					c0.008-0.738,0.613-1.331,1.353-1.323L641.017,684.427z"/>
			</g>
		</g>
		<g>
			<g>
				<circle fill-rule="evenodd" clip-rule="evenodd" fill="#D9DAD9" cx="661.277" cy="720.1" r="9.823"/>
				<circle fill-rule="evenodd" clip-rule="evenodd" fill="#FFFFFF" cx="660.824" cy="720.941" r="9.823"/>
				<path fill-rule="evenodd" clip-rule="evenodd" fill="#D9DAD9" d="M666.642,719.656c0.739,0.007,1.331,0.612,1.323,1.352
					c-0.008,0.738-0.612,1.332-1.352,1.323l-11.595-0.123c-0.739-0.008-1.332-0.613-1.324-1.353
					c0.008-0.738,0.613-1.331,1.353-1.323L666.642,719.656z"/>
			</g>
			<g>
				<circle fill-rule="evenodd" clip-rule="evenodd" fill="#D9DAD9" cx="661.277" cy="684.871" r="9.823"/>
				<circle fill-rule="evenodd" clip-rule="evenodd" fill="#FFFFFF" cx="660.824" cy="685.713" r="9.823"/>
				<path fill-rule="evenodd" clip-rule="evenodd" fill="#D9DAD9" d="M666.642,684.427c0.739,0.009,1.331,0.613,1.323,1.353
					c-0.008,0.738-0.612,1.332-1.352,1.324l-11.595-0.124c-0.739-0.008-1.332-0.613-1.324-1.353
					c0.008-0.738,0.613-1.331,1.353-1.323L666.642,684.427z"/>
			</g>
		</g>
	</g>
</g>
<g>
	<g>
		<rect x="575.746" y="580.93" fill-rule="evenodd" clip-rule="evenodd" fill="#DDDDDE" width="3.599" height="12.382"/>
		<rect x="583.971" y="580.93" fill-rule="evenodd" clip-rule="evenodd" fill="#F0B84F" width="6.04" height="12.382"/>
		<rect x="579.345" y="580.93" fill-rule="evenodd" clip-rule="evenodd" fill="#FFCA6A" width="4.626" height="12.382"/>
	</g>
	<path fill-rule="evenodd" clip-rule="evenodd" fill="#DDDDDE" d="M569.634,597.32v10.67h3.395v-15.932
		C571.027,592.965,569.634,594.979,569.634,597.32z"/>
	<g>
		<path fill-rule="evenodd" clip-rule="evenodd" fill="#EFF0EF" d="M573.028,592.059v15.932h2.383v-16.446
			C574.562,591.544,573.755,591.729,573.028,592.059z"/>
	</g>
	<g>
		<rect x="575.411" y="591.544" fill-rule="evenodd" clip-rule="evenodd" fill="#FFCA6A" width="11.959" height="16.446"/>
		<g>
			<path fill-rule="evenodd" clip-rule="evenodd" fill="#F0B84F" d="M596.123,597.32c0-3.19-2.586-5.776-5.776-5.776h-2.977v16.446
				h8.753V597.32z"/>
		</g>
	</g>
	<g>
		<g>
			<g>
				<path fill-rule="evenodd" clip-rule="evenodd" fill="#5798BA" d="M601.022,645.635v-14.26c0-2.039-1.645-3.682-3.683-3.682
					h-1.484v17.941H601.022z"/>
			</g>
			<g>
				<g>
					<path fill-rule="evenodd" clip-rule="evenodd" fill="#74C0EB" d="M569.46,627.703c-1.923,0.13-3.476,1.719-3.476,3.672v14.26
						h3.476v-4.696V627.703z"/>
				</g>
				<g>
					<polygon fill-rule="evenodd" clip-rule="evenodd" fill="#74C0EB" points="571.715,627.693 571.715,640.938 571.715,645.635 
						595.855,645.635 595.855,627.693 					"/>
				</g>
				<g>
					<path fill-rule="evenodd" clip-rule="evenodd" fill="#CFE5F7" d="M570.588,639.812L570.588,639.812
						c-0.623,0-1.128,0.505-1.128,1.127v4.696h2.255v-4.696C571.715,640.316,571.21,639.812,570.588,639.812z"/>
				</g>
				<g>
					<path fill-rule="evenodd" clip-rule="evenodd" fill="#CFE5F7" d="M570.587,639.812L570.587,639.812
						c0.623,0,1.128,0.505,1.128,1.127v-13.245h-2.001c-0.085,0-0.17,0.005-0.254,0.01v13.235
						C569.46,640.316,569.965,639.812,570.587,639.812z"/>
				</g>
			</g>
		</g>
	</g>
	<g>
		<g>
			<path fill-rule="evenodd" clip-rule="evenodd" fill="#5798BA" d="M601.021,643.465h-21.676v11.572l24.136,0.549v-9.092
				C602.407,645.349,601.492,644.266,601.021,643.465z"/>
		</g>
		<g>
			<path fill-rule="evenodd" clip-rule="evenodd" fill="#5798BA" d="M610.015,652.758c0,0-3.785-3.332-6.534-6.264v9.092
				l5.351,0.122L610.015,652.758z"/>
		</g>
	</g>
	<g>
		<path fill-rule="evenodd" clip-rule="evenodd" fill="#5798BA" d="M558.04,655.708l-1.184-2.95c0,0,7.316-6.441,8.994-9.293h16.268
			v11.572L558.04,655.708z"/>
	</g>
	<g>
		<g>
			<g>
				<path fill-rule="evenodd" clip-rule="evenodd" fill="#5798BA" d="M603.456,733.973c0,2.295-1.104,4.33-2.813,5.599h5.209
					c3.29,0,5.944-2.667,5.944-5.958v-9.281h-8.34V733.973z"/>
			</g>
			<g>
				<path fill-rule="evenodd" clip-rule="evenodd" fill="#5798BA" d="M611.796,679.826v-23.021c0-3.291-2.654-5.941-5.944-5.941
					h-2.396v28.963H611.796z"/>
			</g>
			<g>
				<path fill-rule="evenodd" clip-rule="evenodd" fill="#74C0EB" d="M603.456,733.973v-9.641h-38.972v5.232
					c0,1.004-0.814,1.818-1.818,1.818h-0.001c-1.005,0-1.82-0.814-1.82-1.818v-5.232h-5.61v9.281c0,3.291,2.73,5.958,6.021,5.958
					h39.388C602.352,738.303,603.456,736.268,603.456,733.973z"/>
			</g>
			<g>
				<path fill-rule="evenodd" clip-rule="evenodd" fill="#74C0EB" d="M560.845,672.243c0-1.005,0.815-1.819,1.82-1.819h0.001
					c1.004,0,1.818,0.814,1.818,1.819v7.583h38.972v-28.963h-42.201c-3.29,0-6.021,2.65-6.021,5.941v23.021h5.61V672.243z"/>
			</g>
			<g>
				<path fill-rule="evenodd" clip-rule="evenodd" fill="#CFE5F7" d="M560.845,729.564c0,1.004,0.815,1.818,1.82,1.818h0.001
					c1.004,0,1.818-0.814,1.818-1.818v-5.232h-3.64V729.564z"/>
			</g>
			<g>
				<path fill-rule="evenodd" clip-rule="evenodd" fill="#CFE5F7" d="M564.484,672.243c0-1.005-0.814-1.819-1.818-1.819h-0.001
					c-1.005,0-1.82,0.814-1.82,1.819v7.583h3.64V672.243z"/>
			</g>
			<rect x="603.48" y="679.848" fill-rule="evenodd" clip-rule="evenodd" fill="#DBCDAE" width="8.312" height="44.472"/>
			<g>
				<rect x="564.484" y="679.826" fill-rule="evenodd" clip-rule="evenodd" fill="#ECDCB9" width="38.972" height="44.506"/>
			</g>
			<g>
				<rect x="555.234" y="679.826" fill-rule="evenodd" clip-rule="evenodd" fill="#ECDCB9" width="5.61" height="44.506"/>
			</g>
			<rect x="560.809" y="679.848" fill-rule="evenodd" clip-rule="evenodd" fill="#F3E9D7" width="3.684" height="44.472"/>
		</g>
	</g>
	<g>
		<rect x="559.009" y="627.693" fill-rule="evenodd" clip-rule="evenodd" fill="#DDDDDE" width="47.739" height="5.051"/>
	</g>
	<g>
		<path fill-rule="evenodd" clip-rule="evenodd" fill="#EFF0EF" d="M573.028,547.08v35.344h4.567v-43.658
			C574.851,540.514,573.028,543.584,573.028,547.08z"/>
	</g>
	<g>
		<path fill-rule="evenodd" clip-rule="evenodd" fill="#FFCA6A" d="M582.878,537.23c-1.943,0-3.756,0.563-5.282,1.535v43.658h9.774
			v-44.112C586.023,537.62,584.496,537.23,582.878,537.23z"/>
		<g>
			<path fill-rule="evenodd" clip-rule="evenodd" fill="#F0B84F" d="M592.728,547.08c0-3.822-2.177-7.136-5.357-8.769v44.112h5.357
				V547.08z"/>
		</g>
	</g>
	<rect x="559.557" y="580.024" fill-rule="evenodd" clip-rule="evenodd" fill="#F0B84F" width="46.644" height="4.8"/>
	<g>
		<path fill-rule="evenodd" clip-rule="evenodd" fill="#F78D26" d="M606.748,613.515c0-4.214-2.505-7.843-6.105-9.481v23.66h6.105
			V613.515z"/>
	</g>
	<g>
		<path fill-rule="evenodd" clip-rule="evenodd" fill="#EA7624" d="M600.643,604.033c-1.313-0.596-2.771-0.929-4.306-0.929v24.589
			h4.306V604.033z"/>
	</g>
	<g>
		<g>
			<path fill-rule="evenodd" clip-rule="evenodd" fill="#F78D26" d="M569.42,603.104c-5.75,0-10.411,4.661-10.411,10.41v14.179
				h14.02v-24.589H569.42z"/>
		</g>
		<g>
			<rect x="573.028" y="603.104" fill-rule="evenodd" clip-rule="evenodd" fill="#EA7624" width="10.942" height="24.589"/>
		</g>
		<g>
			<rect x="583.971" y="603.104" fill-rule="evenodd" clip-rule="evenodd" fill="#F78D26" width="12.366" height="24.589"/>
		</g>
	</g>
</g>
<g>
	<path fill-rule="evenodd" clip-rule="evenodd" fill="#3A92CD" d="M798.016,734.111
		C798.015,734.111,798.015,734.112,798.016,734.111c0.88-1.541,1.376-3.337,1.376-5.242v-0.004c0-5.824-4.688-10.547-10.511-10.547
		h-14.989h-14.978c-5.824,0-10.55,4.723-10.55,10.547v0.004c0,1.903,0.499,3.697,1.384,5.238c0.003,0.002,0.002,0.002,0.005,0.004
		c1.825,3.166,5.246,5.278,9.161,5.278h14.978h14.989C792.796,739.39,796.202,737.277,798.016,734.111z"/>
	<g>
		<path fill-rule="evenodd" clip-rule="evenodd" fill="#EA7624" d="M798.016,734.106c-1.746,0.886-3.722,1.402-5.814,1.402h-18.307
			v3.881h14.986C792.796,739.39,796.202,737.273,798.016,734.106z"/>
		<path fill-rule="evenodd" clip-rule="evenodd" fill="#F78D26" d="M799.392,728.865c0-5.824-4.688-10.547-10.511-10.547h-14.986
			v17.19h18.307c2.093,0,4.061-0.505,5.808-1.39c0.885-1.545,1.383-3.341,1.383-5.25V728.865z"/>
		<g>
			<path fill-rule="evenodd" clip-rule="evenodd" fill="#98A4A9" d="M755.594,735.509c-2.104,0-4.095-0.522-5.854-1.417
				c1.823,3.176,5.253,5.298,9.174,5.298h14.98v-3.881H755.594z"/>
		</g>
		<g>
			<path fill-rule="evenodd" clip-rule="evenodd" fill="#D3DEE1" d="M773.895,735.509v-17.19h-14.98
				c-5.824,0-10.55,4.723-10.55,10.547v0.004c0,1.903,0.499,3.693,1.384,5.234c1.759,0.896,3.741,1.405,5.846,1.405H773.895z"/>
		</g>
	</g>
	<g>
		<path fill-rule="evenodd" clip-rule="evenodd" fill="#EA7624" d="M786.063,722.336h1.75c0.01,0,0.021,0.009,0.03,0.009
			c0.011-0.001,1.291-0.028,2.819,0.435c1.976,0.6,3.428,1.715,4.317,3.309c0.062,0.111,0.145,0.203,0.24,0.273
			c0.263,0.193,0.625,0.229,0.928,0.061c0.265-0.147,0.42-0.413,0.439-0.693l0.002-0.001c-0.001-0.001-0.002-0.002-0.002-0.003
			c0.001-0.018,0.002-0.035,0.002-0.053c0-0.143-0.035-0.286-0.109-0.419c-1.107-1.984-2.967-3.415-5.377-4.132
			c-1.704-0.507-3.117-0.488-3.302-0.488h-1.738h-12.168v1.703H786.063z"/>
		<g>
			<path fill-rule="evenodd" clip-rule="evenodd" fill="#F4F5FB" d="M752.488,726.091c0.89-1.595,2.342-2.707,4.316-3.306
				c1.529-0.464,2.81-0.441,2.82-0.44c0.01,0,0.021-0.009,0.03-0.009h1.75h12.489v-1.703h-12.489h-1.738
				c-0.185,0-1.598-0.019-3.301,0.488c-2.41,0.717-4.27,2.146-5.378,4.131c-0.074,0.133-0.109,0.277-0.109,0.419
				c0,0.018,0.001,0.036,0.002,0.054c-0.001,0-0.001,0.002-0.002,0.003l0.002,0.001c0.02,0.28,0.175,0.547,0.438,0.693
				c0.304,0.17,0.666,0.135,0.928-0.059C752.344,726.292,752.427,726.201,752.488,726.091z"/>
		</g>
	</g>
</g>
<g>
	<path fill-rule="evenodd" clip-rule="evenodd" fill="#3A92CD" d="M717.976,738.762c0,0-0.001,0.001-0.001,0.002
		c0.914-1.601,1.429-3.463,1.429-5.439v-0.004c0-6.042-4.862-10.941-10.903-10.941h-15.549h-15.539
		c-6.041,0-10.943,4.899-10.943,10.941v0.004c0,1.975,0.518,3.836,1.436,5.435c0.003,0.001,0.002,0.001,0.005,0.003
		c1.894,3.285,5.443,5.477,9.503,5.477h15.539H708.5C712.561,744.238,716.095,742.047,717.976,738.762z"/>
	<g>
		<g>
			<path fill-rule="evenodd" clip-rule="evenodd" fill="#5798BA" d="M717.976,738.758c-1.812,0.918-3.861,1.454-6.032,1.454h-18.99
				v4.026H708.5C712.561,744.238,716.095,742.043,717.976,738.758z"/>
		</g>
		<g>
			<path fill-rule="evenodd" clip-rule="evenodd" fill="#74C0EB" d="M719.403,733.32c0-6.042-4.862-10.941-10.903-10.941h-15.547
				v17.833h18.99c2.171,0,4.213-0.523,6.025-1.441c0.917-1.603,1.435-3.466,1.435-5.446V733.32z"/>
		</g>
		<g>
			<path fill-rule="evenodd" clip-rule="evenodd" fill="#98A4A9" d="M673.968,740.212c-2.183,0-4.247-0.542-6.071-1.47
				c1.891,3.293,5.449,5.496,9.516,5.496h15.541v-4.026H673.968z"/>
		</g>
		<g>
			<path fill-rule="evenodd" clip-rule="evenodd" fill="#D3DEE1" d="M692.953,740.212v-17.833h-15.541
				c-6.041,0-10.943,4.899-10.943,10.941v0.004c0,1.975,0.518,3.832,1.436,5.431c1.824,0.929,3.881,1.457,6.063,1.457H692.953z"/>
		</g>
	</g>
	<g>
		<g>
			<path fill-rule="evenodd" clip-rule="evenodd" fill="#CFE5F7" d="M705.576,726.546h1.815c0.01,0,0.021,0.011,0.031,0.01
				c0.011,0,1.34-0.029,2.925,0.452c2.049,0.621,3.556,1.777,4.479,3.432c0.064,0.114,0.15,0.21,0.249,0.283
				c0.273,0.201,0.648,0.238,0.963,0.063c0.273-0.152,0.436-0.428,0.455-0.719l0.002-0.001c0-0.001-0.001-0.003-0.002-0.004
				c0.002-0.019,0.002-0.036,0.002-0.055c0-0.147-0.036-0.296-0.112-0.434c-1.15-2.06-3.079-3.543-5.579-4.287
				c-1.767-0.525-3.233-0.506-3.424-0.506h-1.804h-12.623v1.766H705.576z"/>
		</g>
		<g>
			<path fill-rule="evenodd" clip-rule="evenodd" fill="#F4F5FB" d="M670.747,730.441c0.923-1.654,2.43-2.808,4.479-3.429
				c1.585-0.481,2.914-0.457,2.925-0.457c0.011,0.001,0.021-0.01,0.031-0.01h1.815h12.956v-1.766h-12.956h-1.804
				c-0.19,0-1.657-0.02-3.425,0.506c-2.499,0.744-4.429,2.227-5.578,4.286c-0.076,0.137-0.113,0.287-0.113,0.434
				c0,0.019,0.001,0.037,0.002,0.056c0,0.001-0.001,0.003-0.002,0.004l0.002,0.001c0.021,0.291,0.182,0.566,0.455,0.719
				c0.315,0.176,0.69,0.14,0.963-0.061C670.597,730.65,670.683,730.557,670.747,730.441z"/>
		</g>
	</g>
</g>
<path fill-rule="evenodd" clip-rule="evenodd" fill="#FFFFFF" d="M245.724,369.427h102.169c7.174,0,13.043,5.869,13.043,13.043
	c0,7.174-5.869,13.043-13.043,13.043H245.724c-7.175,0-13.043-5.869-13.043-13.043C232.681,375.296,238.549,369.427,245.724,369.427
	z"/>
</svg>
